<?xml version="1.0" encoding="utf-8"?>
<!-- Generator: Adobe Illustrator 23.1.1, SVG Export Plug-In . SVG Version: 6.00 Build 0)  -->
<svg version="1.1" id="_x37_c_H" xmlns="http://www.w3.org/2000/svg" xmlns:xlink="http://www.w3.org/1999/xlink" x="0px" y="0px"
	 viewBox="0 0 660 260" style="enable-background:new 0 0 660 260;" xml:space="preserve">
<style type="text/css">
	.Arco_x0020_verde{fill:url(#SVGID_1_);stroke:#FFFFFF;stroke-width:0.25;stroke-miterlimit:1;}
	.st0{fill:#F6921E;}
	.st1{fill:#FD9D6F;}
	.st2{fill:#B86966;}
	.st3{opacity:0.38;fill:#FFFFFF;}
	.st4{fill:#FB5C0F;}
	.st5{fill:#882D00;}
	.st6{fill:#CC3399;}
	.st7{fill:#DFDFDF;}
	.st8{fill-rule:evenodd;clip-rule:evenodd;fill:#0D99B7;}
	.st9{fill-rule:evenodd;clip-rule:evenodd;fill:#CC3399;}
	.st10{fill:#FFFFFF;}
	.st11{fill:#2B388F;stroke:#2E3191;stroke-width:0.8091;}
	.st12{fill-rule:evenodd;clip-rule:evenodd;fill:#90278E;}
	.st13{fill-rule:evenodd;clip-rule:evenodd;fill:#00ADEE;}
	.st14{fill-rule:evenodd;clip-rule:evenodd;fill:#BE1E2D;}
	.st15{fill-rule:evenodd;clip-rule:evenodd;fill:#F6921E;}
	.st16{display:none;}
	.st17{display:inline;fill:#2B388F;stroke:#2E3191;stroke-width:1.0028;}
	.st18{fill:#2B388F;stroke:#2E3191;}
	.st19{font-family:'ProximaSoft-Light';}
	.st20{font-size:36px;}
</style>
<linearGradient id="SVGID_1_" gradientUnits="userSpaceOnUse" x1="-95.1948" y1="566.83" x2="-94.4877" y2="566.1229">
	<stop  offset="0" style="stop-color:#1EAB4B"/>
	<stop  offset="0.9831" style="stop-color:#19361A"/>
</linearGradient>
<g>
	<path class="st0" d="M355.77,34.64c1.37-1.04,2.79-1.93,4.3-2.59c1.51-0.66,3.1-1.09,4.9-1.27c-1.25,0.13-2.55,0.18-3.89,0.16
		c-2.48-0.03-4.67,0.44-6.72,1.34c-2.04,0.89-3.9,2.19-5.64,3.67c-1.34-1.86-2.86-3.6-4.97-4.89c-2.11-1.27-4.87-2.15-8.62-1.82
		c-2.01,0.19-4.09,0.54-6.14,1.11c-1.9,0.53-3.54,1.35-4.87,2.31c-0.33,0.24-0.64,0.5-0.94,0.75c-0.27,0.25-0.53,0.5-0.77,0.76
		c-0.48,0.51-0.9,1.05-1.27,1.59c-1.46,2.18-2.03,4.5-2.28,6.79c-2.28-0.4-4.61-0.51-6.78-0.28c-1.08,0.11-2.12,0.3-3.08,0.55
		c-0.97,0.25-1.86,0.56-2.74,0.96l-0.33,0.15l0,0l-0.43,0.18c-0.7,0.27-1.4,0.49-2.14,0.66l0.01,0l-0.36,0.08
		c-1.86,0.38-3.23,1.04-4.78,1.98c-1.52,0.93-3.16,2.1-4.92,3.33c-0.99-1.91-1.95-3.73-3.44-5.33c-1.49-1.59-3.52-3.03-6.76-3.92
		l0.07,0.02c-0.9-0.24-1.83-0.47-2.79-0.67c-0.48-0.1-0.96-0.2-1.45-0.29l-1.39-0.23l-0.04-0.01l-0.08-0.01l0.04,0.01
		c-3.25-0.49-6.05-0.03-8.36,0.99c-2.32,1.02-4.16,2.6-5.68,4.38c-1.76-1.57-3.82-2.9-6.39-3.54c-2.55-0.64-5.65-0.58-9.02,0.75
		c-1.82,0.71-3.57,1.52-5.25,2.39c-3.11,1.62-5.01,3.68-6.21,5.82c-1.2,2.15-1.7,4.41-1.97,6.7c-2.27-0.41-4.58-0.6-6.89-0.22
		c-1.16,0.19-2.31,0.51-3.47,1.01c-0.57,0.25-1.17,0.55-1.72,0.88c-0.51,0.29-1.02,0.61-1.51,0.97c-1.07,0.77-2.13,1.45-3.09,1.97
		c-0.89,0.49-1.51,0.93-1.97,1.41c-0.46,0.48-0.75,0.99-1.06,1.57c-0.31,0.58-0.67,1.24-1.19,1.9c-0.52,0.66-1.2,1.33-2.01,1.93
		c-0.54-1.98-0.67-3.86-1.38-5.62c-1.41-3.49-4.63-6.61-4.73-6.7c-0.21-0.18-0.44-0.37-0.69-0.56c-0.38-0.29-1.74-0.79-1.88-0.8
		c-0.36-0.03-0.72,0-1.04,0.08l-0.82,0.2c-0.54,0.13-1.1,0.26-1.66,0.43c-0.28,0.09-0.56,0.18-0.83,0.29
		c-0.14,0.05-0.28,0.11-0.42,0.18l-0.39,0.18l-1.51,0.72l-3.03,1.44c-1.01,0.47-2.02,0.89-3.08,1.24c-1.02,0.36-2.14-0.01-3.22-0.26
		c-1.43-0.32-2.64-0.09-3.34,0.05c-1.08,0.22-0.19,0.91-1.1,0.24c0.87,0.72-0.04-0.12,1.07,0.05c1.12,0.17,1.42,0.06,2.54,0.15
		c0.51,0.03,1.93,0.59,2.46,0.56c0.67,0.09,1.25,0.25,1.86,0.5c0.72,0.34,1.44,0.74,1.95,1.3c0.54,0.58,0.94,1.25,1.26,1.97
		c0.32,0.71,0.54,1.47,0.66,2.23c0.06,0.37,0.09,0.79,0.16,1.2c0.06,0.41,0.14,0.83,0.25,1.24c0.21,0.83,0.53,1.66,1.05,2.42
		c2.22,3.26,6.93,3.5,7.05,3.51c2.45,0.31,4.92-0.07,6.99-1.02c0.55,1.08,1.33,2.13,2.39,3.03c1.06,0.9,2.43,1.63,4,2.04
		c1.57,0.41,3.34,0.51,5.1,0.24c1.77-0.26,3.52-0.87,5.18-1.77c1.79-0.98,3.39-2.04,4.89-3.11c0.69-0.5,1.31-1.01,1.85-1.54
		c0.52-0.51,0.93-0.97,1.32-1.48c0.77-0.99,1.35-2.02,1.8-3.07c0.9-2.1,1.26-4.3,1.48-6.56c2.23,0.45,4.44,0.75,6.63,0.62
		c2.19-0.12,4.32-0.65,6.51-1.79c1.19-0.61,2.37-1.15,3.56-1.62c2.19-0.85,3.75-1.96,5.19-3.38c1.43-1.41,2.69-3.1,4.03-4.87
		c1.55,1.56,3.04,3.05,4.72,4.22c1.69,1.18,3.58,2.05,6.08,2.48l-0.33-0.04l1.05,0.16l0.48,0.08l0.45,0.08
		c0.6,0.12,1.21,0.26,1.84,0.42l0.03,0.01l0.49,0.13l-0.25-0.07c2.34,0.57,4.73,0.61,7.06,0.15c2.33-0.46,4.56-1.43,6.56-2.7
		c1.2,2.1,2.82,4.1,5.37,5.48c2.51,1.37,6.06,2.06,10.12,1.11c2.15-0.5,4.3-1.24,6.3-2.16c1.86-0.86,3.32-1.92,4.42-3.01
		c1.11-1.09,1.88-2.21,2.43-3.32c1.1-2.22,1.37-4.41,1.56-6.65c2.21,0.45,4.33,0.82,6.3,0.95c0.49,0.03,0.98,0.05,1.45,0.04
		l1.35-0.04c0.83-0.04,1.63-0.16,2.51-0.39c0.95-0.26,1.96-0.43,3.06-0.53c2.03-0.18,3.95-0.78,5.82-1.76
		c1.87-0.97,3.65-2.3,5.37-3.79c1.32,1.86,2.77,3.6,4.77,4.95c2,1.34,4.58,2.32,8.14,2.37c1.92,0.02,3.9-0.05,5.92-0.27
		c-2.91,0.3-5.31-0.12-7.26-0.89c-1.95-0.78-3.48-1.91-4.76-3.21l-1.75-2.02c-0.84-1.09-1.6-2.24-2.34-3.39c1-0.93,2-1.86,3.02-2.74
		l0,0.02C353.87,36.16,355.77,34.64,355.77,34.64z M208.69,63.85c0.36,1.05,0.46,2.2,0.52,3.32c0.05,1.13,0.23,2.68-0.7,3.55
		c-0.91,0.85-5.86,1.74-6.97,1.68c-1.5-0.09-3.64-0.66-4.62-1.85c-0.45-0.54-0.79-1.22-1.05-1.94c-0.13-0.36-0.24-0.74-0.34-1.12
		l-0.27-1.19c-0.21-0.82-0.53-1.61-0.94-2.35c-0.41-0.73-0.92-1.42-1.54-1.98c-0.66-0.58-1.43-0.91-2.19-1.19
		c-0.46-0.16-0.92-0.24-1.39-0.3c0.4-0.05,0.81-0.11,1.2-0.23c1.09-0.29,2.16-0.67,3.21-1.08l3.11-1.26l1.56-0.63l0.38-0.15
		c0.12-0.04,0.24-0.09,0.36-0.13c0.25-0.08,0.51-0.15,0.77-0.21c0.52-0.13,1.06-0.22,1.61-0.32l0.82-0.15
		c0.23-0.04,0.43-0.04,0.63-0.01c3.06,0.43,4.39,4.12,4.54,4.44C207.84,61.78,208.33,62.79,208.69,63.85z M234.1,64.52l-0.32,2.61
		c-0.14,0.82-0.32,1.62-0.57,2.42c-0.12,0.4-0.26,0.79-0.42,1.18c-0.08,0.2-0.16,0.39-0.25,0.58c-0.09,0.2-0.21,0.41-0.32,0.61
		c0,0-1.26,1.8-1.24,1.82c-0.55,0.67-1.19,1.34-1.97,1.97c-0.72,0.35-1.45,0.64-2.19,0.87c-0.63,0.18-2.25,0.5-2.25,0.5
		c-2.07,0.28-4.11,0.06-5.9-0.58l-2.62-1.34c-1.34-0.94-2.38-2.13-3.1-3.39c0.66-0.63,1.21-1.32,1.67-2.02
		c0.42-1.03,1.56-3.19,1.56-3.19c0.47-1.19,0.87-2.29,1.51-3.33c0,0,0.89-1.06,0.81-1.13c0.29-0.36,0.55-0.64,1.07-0.97
		c1.31-0.79,3.5-1.07,3.5-1.07c0.37-0.05,0.8-0.13,1.22-0.18c0.42-0.05,0.84-0.09,1.25-0.11c0.83-0.04,1.67-0.02,2.5,0.04l2.64,0.33
		c1.21,0.2,2.42,0.46,3.63,0.73C234.25,62.08,234.2,63.31,234.1,64.52z M257.74,53.84c-0.78,1.26-3.73,4.64-3.73,4.64
		c-0.39,0.34-0.81,0.67-1.27,0.98c-0.63,0.16-1.25,0.28-1.87,0.37c-0.26,0.01-1.71,0.13-1.71,0.13c-1.51,0.04-3.04-0.13-4.59-0.42
		c0,0-5.08-1.2-6.39-1.53c0.11-1.34,1.11-6.62,1.11-6.62c0.51-1.6,1.26-3.17,2.44-4.64c0,0,1.87-2.34,3.67-3.18
		c1.7-0.63,4.6-0.72,4.6-0.72c1.95,0.02,7.29,0.66,11.21,5.22C260.41,49.29,257.74,53.84,257.74,53.84z M290.35,52.16
		c-1.07,0.71-2.18,1.39-3.3,2.03c-2.16,2.05-8.4,3.05-8.41,3.08c-0.7,0.1-1.4,0.15-2.1,0.16c-0.21-0.09-0.41-0.19-0.61-0.29
		l-0.29-0.15l-1.79-1.02c-1.16-0.77-2.17-1.69-3.13-2.7l-1.62-1.83c-1.01-1.2-2-2.46-3.08-3.7c0.89-1.1,4.99-5.03,6.22-5.62
		c1.19-0.58,5.04-1.7,5.69-1.7c-0.01-0.02,0.74-0.1,1.13-0.09c0.4,0,0.81,0.03,1.23,0.06c0.89,0.3,2.55,1.14,2.61,1.17
		c0.61,0.33,1.67,1.18,1.67,1.18c0.95,0.79,3.26,3.61,3.61,4.17C288.62,47.6,289.91,51.16,290.35,52.16z M318.29,50.59l-0.02-0.03
		c-0.02,0.26-0.04,0.51-0.07,0.76c-0.08,0.66-0.26,1.28-0.5,1.88l0.01,0.02c-0.99,3.28-3.83,5.79-4.41,6.17
		c0.01,0.01-1.66,1.18-2.68,1.65c-2.15,0.56-4.66,0.31-4.66,0.31c-5.51-0.69-7.36-3.25-7.62-3.57c-1.4-1.34-2.46-2.89-3.36-4.46
		c1.47-1.23,2.78-2.54,3.98-3.78l1.47-1.53c0.82-0.84,1.6-1.6,2.46-2.27c0,0,1.56-1.07,1.8-1.21c0.59-0.07,3.46-0.16,4.32-0.09
		c0.8,0.06,4.92-0.05,9.59,1.78C318.56,47.67,318.5,49.12,318.29,50.59z M343.4,40.96c-1.49,1.87-3.57,3.46-5.56,4.73
		c-0.43,0.28-2.13,1.16-2.59,1.35c-0.47-0.02-2.7-0.44-2.7-0.44c-0.58-0.16-1.17-0.35-1.79-0.56c-0.61-0.21-1.24-0.44-1.94-0.65
		l-2.3-0.76c-1.31-0.44-2.67-0.88-4.07-1.26c0.12-1.44,0.31-2.89,0.69-4.34c0,0,0.14-1.42,0.52-2.17c0.27-0.53,0.6-1.02,0.96-1.49
		c0.71-1.17,1.68-2.3,2.92-3.26c0,0,2.52-1.89,4.55-2.29c1.97-0.34,4.99,0.58,4.99,0.58c1.84,0.6,3.31,1.55,4.56,2.65
		c0,0,1.66,1.46,2.25,2.34c0.08,0.11,1.51,2.11,2.11,3.02L343.4,40.96z"/>
	<g>
		<g>
			<path class="st1" d="M316.52,48.24l-0.29-0.41c-0.14,0.2-0.31,0.38-0.52,0.53c-0.24,0.17-0.5,0.29-0.77,0.35l0.32,0.44
				c0.05,0.07,0.02,0.18-0.06,0.24c-0.01,0.01-0.02,0.01-0.03,0.02l3.09,4.23c0.2,0.28,0.73,0.25,1.18-0.07
				c0.45-0.32,0.65-0.81,0.45-1.09l-3.09-4.23c0,0-0.01,0.01-0.01,0.01C316.68,48.32,316.57,48.31,316.52,48.24z"/>
			<g>
				<path class="st2" d="M311.68,44.59l1.14,1.57l1.82,2.54l0.04,0.06l0.47,0.65c0.01,0,0.02-0.01,0.03-0.02
					c0.08-0.06,0.11-0.17,0.06-0.24l-0.32-0.44c0.27-0.06,0.53-0.18,0.77-0.35c0.21-0.15,0.38-0.33,0.52-0.53l0.29,0.41
					c0.05,0.07,0.16,0.08,0.24,0.02c0,0,0.01-0.01,0.01-0.01l-0.43-0.6l-0.08-0.11l-1.85-2.59
					C314.41,44.94,312.03,44.56,311.68,44.59z"/>
				<path class="st3" d="M312.92,45.14l5.95,8.31l0,0c-0.25,0.18-0.62,0.11-0.81-0.17l-5.89-8.23L312.92,45.14z"/>
			</g>
		</g>
		<g>
			<path class="st1" d="M355.09,40.43l0.06-0.5c-0.24,0.05-0.49,0.07-0.74,0.04c-0.29-0.04-0.57-0.13-0.8-0.27l-0.07,0.54
				c-0.01,0.09-0.1,0.14-0.21,0.13c-0.01,0-0.02-0.01-0.04-0.01l-0.24,1.97l1.75,2.03l0.47-3.74c-0.01,0-0.01,0-0.02,0
				C355.15,40.59,355.08,40.51,355.09,40.43z"/>
			<g>
				<path class="st2" d="M354.21,33.35l-0.42,3.04l-0.39,3.1l-0.01,0.07l-0.1,0.79c0.01,0,0.02,0.01,0.04,0.01
					c0.1,0.01,0.19-0.05,0.21-0.13l0.07-0.54c0.24,0.14,0.51,0.23,0.8,0.27c0.26,0.03,0.51,0.02,0.74-0.04l-0.06,0.5
					c-0.01,0.09,0.06,0.17,0.17,0.18c0.01,0,0.01,0,0.02,0l0.09-0.74l0.02-0.13l0.4-3.16l0.42-2.98c0.04-0.34-0.37-0.61-0.92-0.68
					C354.73,32.85,354.26,33.01,354.21,33.35z"/>
				<path class="st3" d="M354.91,33.15l-1.22,9.72l-0.48-0.67l1.07-8.52C354.31,33.35,354.6,33.11,354.91,33.15L354.91,33.15z"/>
			</g>
		</g>
		<g>
			<path class="st1" d="M242.2,56.09l-0.27-0.4c-0.15,0.19-0.33,0.37-0.54,0.51c-0.25,0.16-0.51,0.27-0.78,0.33l0.29,0.43
				c0.05,0.07,0.01,0.17-0.07,0.23c-0.01,0.01-0.02,0.01-0.03,0.02l2.9,4.36c0.18,0.28,0.71,0.25,1.16-0.06
				c0.46-0.31,0.68-0.78,0.5-1.06l-2.9-4.36c0,0-0.01,0.01-0.01,0.01C242.36,56.17,242.25,56.16,242.2,56.09z"/>
			<path class="st2" d="M238.77,54.22l1.56,2.29l0.04,0.06l0.43,0.64c0.01-0.01,0.02-0.01,0.03-0.02c0.09-0.06,0.12-0.16,0.07-0.23
				l-0.29-0.43c0.27-0.06,0.53-0.16,0.78-0.33c0.22-0.14,0.4-0.32,0.54-0.51l0.27,0.4c0.05,0.07,0.15,0.08,0.24,0.02
				c0,0,0.01-0.01,0.01-0.01l-0.4-0.59l-0.07-0.11l-1.7-2.55l-0.99-1.47L238.77,54.22z"/>
			<path class="st3" d="M239.01,53.33l5.52,8.28l0,0c-0.26,0.17-0.61,0.1-0.79-0.17l-4.86-7.3L239.01,53.33z"/>
		</g>
		<g>
			<path class="st1" d="M271.12,48.43l0.05-0.48c-0.23,0.06-0.48,0.08-0.74,0.05c-0.3-0.03-0.57-0.11-0.81-0.24l-0.05,0.52
				c-0.01,0.08-0.1,0.14-0.2,0.13c-0.01,0-0.02-0.01-0.04-0.01l-0.48,5.26c-0.03,0.33,0.39,0.64,0.94,0.69
				c0.55,0.05,1.02-0.17,1.05-0.5l0.48-5.25c-0.01,0-0.01,0-0.02,0C271.19,48.59,271.11,48.51,271.12,48.43z"/>
			<path class="st2" d="M269.74,44.1l-0.05,0.48l-0.29,2.99l-0.01,0.07l-0.07,0.77c0.01,0,0.02,0.01,0.04,0.01
				c0.1,0.01,0.19-0.05,0.2-0.13l0.05-0.52c0.24,0.13,0.52,0.21,0.81,0.24c0.26,0.02,0.51,0,0.74-0.05l-0.05,0.48
				c-0.01,0.08,0.07,0.16,0.17,0.17c0.01,0,0.01,0,0.02,0l0.07-0.71l0.01-0.13l0.29-3.05l0.22-2.36
				C271.94,42.01,269.74,44.1,269.74,44.1z"/>
			<path class="st3" d="M270.46,43.56l-0.94,9.78l0,0c-0.31-0.03-0.54-0.31-0.5-0.64l0.82-8.55L270.46,43.56z"/>
		</g>
		<g>
			<path class="st1" d="M232.71,62.84l-0.3-0.38c-0.13,0.21-0.29,0.39-0.49,0.56c-0.23,0.19-0.49,0.32-0.75,0.4l0.33,0.4
				c0.05,0.06,0.03,0.17-0.05,0.23c-0.01,0.01-0.02,0.01-0.03,0.02l2.39,2.97l0.32-2.7l-1.15-1.52c0,0-0.01,0.01-0.01,0.01
				C232.87,62.9,232.76,62.9,232.71,62.84z"/>
			<path class="st2" d="M227.29,58.95l1.7,2.13l1.89,2.34l0.04,0.05l0.48,0.6c0.01-0.01,0.02-0.01,0.03-0.02
				c0.08-0.06,0.1-0.17,0.05-0.23l-0.33-0.4c0.26-0.08,0.52-0.21,0.75-0.4c0.2-0.16,0.37-0.35,0.49-0.56l0.3,0.38
				c0.05,0.06,0.16,0.06,0.24,0c0,0,0.01-0.01,0.01-0.01l-0.45-0.56l-0.08-0.1l-1.92-2.39l-1.66-2.09
				c-0.21-0.26-0.68-0.14-1.11,0.21C227.31,58.25,227.09,58.69,227.29,58.95z"/>
			<path class="st3" d="M227.62,58.37l6.17,7.66l-0.13,0.74l-6.12-7.59C227.35,58.92,227.38,58.56,227.62,58.37L227.62,58.37z"/>
		</g>
		<g>
			<path class="st1" d="M258.42,49.21l-0.11-0.47c-0.2,0.13-0.43,0.23-0.69,0.29c-0.29,0.07-0.58,0.08-0.85,0.04l0.12,0.51
				c0.02,0.08-0.05,0.17-0.15,0.19c-0.01,0-0.02,0-0.04,0l0.98,4.17c0.37-0.58,1.47-2.46,1.47-2.46l-0.51-2.16
				c-0.01,0-0.01,0.01-0.02,0.01C258.54,49.34,258.44,49.29,258.42,49.21z"/>
			<path class="st2" d="M255.34,43.97l0.49,2.05l0.69,2.93l0.01,0.06l0.18,0.75c0.01,0,0.03,0,0.04,0c0.1-0.02,0.17-0.11,0.15-0.19
				l-0.12-0.51c0.27,0.04,0.56,0.03,0.85-0.04c0.25-0.06,0.48-0.16,0.69-0.29l0.11,0.47c0.02,0.08,0.12,0.13,0.22,0.1
				c0.01,0,0.01-0.01,0.02-0.01l-0.16-0.7l-0.03-0.13l-0.7-2.98l-0.47-2c-0.08-0.32-0.55-0.42-1.09-0.29
				C255.66,43.34,255.27,43.65,255.34,43.97z"/>
			<path class="st3" d="M255.9,43.4l2.26,9.57l-0.43,0.62l-2.24-9.49C255.41,43.78,255.59,43.47,255.9,43.4L255.9,43.4z"/>
		</g>
		<g>
			<path class="st1" d="M306.51,54.2l-0.14-0.71c-0.2,0.16-0.43,0.27-0.69,0.32c-0.29,0.06-0.58,0.02-0.86-0.08l0.15,0.76
				c0.02,0.12-0.04,0.24-0.14,0.25c-0.01,0-0.03,0-0.04,0l1.32,6.63c1.05,0.11,1.67,0.11,2.01-0.04l-1.36-6.97
				c-0.01,0-0.01,0.01-0.02,0.01C306.64,54.41,306.53,54.32,306.51,54.2z"/>
			<g>
				<path class="st2" d="M303.06,45.65l0.65,3.49l0.85,4.39l0.02,0.1l0.22,1.13c0.01,0,0.03,0,0.04,0c0.1-0.02,0.17-0.13,0.14-0.25
					l-0.15-0.76c0.28,0.1,0.57,0.13,0.86,0.08c0.25-0.05,0.48-0.16,0.69-0.32l0.14,0.71c0.02,0.12,0.13,0.2,0.23,0.18
					c0.01,0,0.01-0.01,0.02-0.01l-0.2-1.04l-0.04-0.19l-0.87-4.48l-0.63-3.4c-0.09-0.49-0.59-0.7-1.13-0.6
					C303.35,44.77,302.97,45.16,303.06,45.65z"/>
				<path class="st3" d="M303.65,45.3l3.07,15.88c0,0-0.51,0.33-0.6-0.15l-2.86-14.76C303.17,45.79,303.34,45.36,303.65,45.3
					L303.65,45.3z"/>
			</g>
		</g>
		<g>
			<path class="st1" d="M252.05,49.45l0.26,0.69c-0.26-0.03-0.51-0.01-0.75,0.09c-0.28,0.11-0.51,0.29-0.69,0.52l-0.28-0.74
				c-0.04-0.12-0.16-0.18-0.26-0.15c-0.01,0-0.02,0.01-0.03,0.02l-2.6-6.8c-0.18-0.47,1.69-1.18,1.87-0.71l2.59,6.8
				c-0.01,0-0.01,0-0.02,0C252.05,49.2,252.01,49.33,252.05,49.45z"/>
			<g>
				<path class="st2" d="M253.73,58.71l-1.35-3.38l-1.62-4.26l-0.04-0.09l-0.42-1.09c0.01-0.01,0.02-0.02,0.03-0.02
					c0.1-0.04,0.21,0.03,0.26,0.15l0.28,0.74c0.18-0.24,0.41-0.42,0.69-0.52c0.24-0.09,0.5-0.12,0.75-0.09l-0.26-0.69
					c-0.04-0.12,0-0.24,0.09-0.28c0.01,0,0.01,0,0.02,0l0.39,1.01l0.07,0.18l1.66,4.34l0.9,2.36
					C255.18,57.07,254.54,58.09,253.73,58.71z"/>
				<path class="st3" d="M253.99,57.68l-5.72-15.01c0,0-0.58,0.06-0.41,0.52l5.67,14.88C253.71,58.52,253.99,57.68,253.99,57.68z"/>
			</g>
		</g>
		<g>
			<path class="st4" d="M282.48,49.03l-0.19,0.69c-0.19-0.17-0.41-0.3-0.66-0.37c-0.29-0.08-0.58-0.07-0.87,0.01l0.21-0.75
				c0.03-0.12-0.02-0.24-0.12-0.26c-0.01,0-0.02,0-0.04,0l1.89-6.89c0.39,0.19,1.38,0.84,1.76,1.23l-1.73,6.18
				c-0.01,0-0.01-0.01-0.02-0.01C282.62,48.84,282.51,48.91,282.48,49.03z"/>
			<g>
				<path class="st5" d="M278.46,56.89l0.83-3.03l1.19-4.31l0.03-0.09l0.3-1.11c0.01,0,0.03,0,0.04,0c0.1,0.03,0.15,0.15,0.12,0.26
					l-0.21,0.75c0.29-0.08,0.58-0.09,0.87-0.01c0.25,0.07,0.47,0.2,0.66,0.37l0.19-0.69c0.03-0.12,0.14-0.19,0.24-0.17
					c0.01,0,0.01,0.01,0.02,0.01l-0.28,1.03l-0.05,0.19l-1.21,4.4l-0.81,2.94c-0.13,0.48-0.64,0.65-1.17,0.51
					C278.68,57.78,278.33,57.37,278.46,56.89z"/>
				<path class="st3" d="M278.94,57.69l4.32-15.71l-0.48-0.34l-4.15,15.06C278.5,57.16,278.64,57.6,278.94,57.69L278.94,57.69z"/>
			</g>
		</g>
		<g>
			<path class="st1" d="M276.83,47.79l-0.11,0.71c-0.21-0.15-0.44-0.26-0.7-0.3c-0.29-0.05-0.58-0.01-0.86,0.11l0.12-0.77
				c0.02-0.12-0.05-0.23-0.15-0.25c-0.01,0-0.03,0-0.04,0l1.04-6.48c0.64-0.26,1.44-0.5,2.09-0.47l-1.16,7.26
				c-0.01,0-0.01-0.01-0.02-0.01C276.95,47.58,276.85,47.67,276.83,47.79z"/>
			<g>
				<path class="st2" d="M273.69,56.05l0.5-3.1l0.71-4.42l0.02-0.1l0.18-1.13c0.01,0,0.02-0.01,0.04,0c0.1,0.02,0.17,0.13,0.15,0.25
					l-0.12,0.77c0.27-0.11,0.57-0.15,0.86-0.11c0.26,0.04,0.49,0.15,0.7,0.3l0.11-0.71c0.02-0.12,0.12-0.21,0.22-0.19
					c0.01,0,0.01,0.01,0.02,0.01l-0.17,1.05l-0.03,0.19l-0.72,4.5l-0.55,3.6c-0.06,0.2-0.69,0.17-1.23,0.08
					C273.82,56.94,273.61,56.53,273.69,56.05z"/>
				<path class="st3" d="M274.29,56.69l2.57-16.02l-0.63,0.34l-2.36,14.73C273.79,56.22,273.98,56.64,274.29,56.69L274.29,56.69z"/>
			</g>
		</g>
		<g>
			<path class="st4" d="M245.65,52.7l0.15,0.28c-0.22,0.21-0.37,0.49-0.43,0.79l1.06,1.98l2.69,5.01c0.23,0.44,2-0.5,1.76-0.94
				l-2.57-4.79l-1.29-2.42c-0.27-0.04-0.55-0.02-0.8,0.09l-0.13-0.24c-0.08-0.14-0.24-0.21-0.36-0.14
				C245.61,52.39,245.57,52.56,245.65,52.7z"/>
			<g>
				<path class="st5" d="M241.68,46.82l3.69,6.95c0.06-0.3,0.21-0.58,0.43-0.79l-0.15-0.28c-0.08-0.14-0.04-0.31,0.08-0.38
					c0.12-0.06,0.28,0,0.36,0.14l0.13,0.24c0.26-0.11,0.53-0.14,0.8-0.09l-3.7-6.94c-0.07-0.14-0.18-0.24-0.31-0.32
					C242.6,45.7,241.68,46.82,241.68,46.82z"/>
				<path class="st3" d="M242.25,46.52l7.48,14.04l0,0c-0.28,0.15-0.68-0.08-0.91-0.51l-6.99-13.11L242.25,46.52z"/>
			</g>
		</g>
		<g>
			<path class="st4" d="M310.23,51.16l0.14,0.28c-0.23,0.2-0.38,0.47-0.46,0.77l0.98,1.98l2.45,4.92c0.22,0.44,0.75,0.51,1.24,0.26
				c0.49-0.25,0.76-0.72,0.55-1.15l-2.34-4.7l-1.2-2.42c-0.27-0.05-0.54-0.03-0.8,0.08l-0.12-0.24c-0.07-0.14-0.23-0.21-0.35-0.15
				C310.2,50.85,310.16,51.02,310.23,51.16z"/>
			<g>
				<path class="st5" d="M306.05,44.46l3.87,7.75c0.07-0.3,0.23-0.57,0.46-0.77l-0.14-0.28c-0.07-0.14-0.03-0.31,0.09-0.37
					c0.12-0.06,0.28,0.01,0.35,0.15l0.12,0.24c0.26-0.1,0.54-0.13,0.8-0.08l-3.29-6.68C307.57,44.22,306.63,44.39,306.05,44.46z"/>
				<path class="st3" d="M307.11,45.12l6.86,13.82l0,0c-0.28,0.14-0.68-0.09-0.89-0.52l-6.58-13.27
					C306.28,44.73,307.11,45.12,307.11,45.12z"/>
			</g>
		</g>
		<g>
			<path class="st4" d="M330.11,38.68l0.07,0.3c-0.27,0.15-0.48,0.37-0.62,0.65l0.5,2.15l1,4.34c0,0,1.27,0.55,2.26,0.63l-1.26-5.18
				l-0.61-2.63c-0.25-0.11-0.52-0.15-0.8-0.11l-0.06-0.26c-0.04-0.16-0.17-0.26-0.31-0.23C330.16,38.37,330.08,38.52,330.11,38.68z"
				/>
			<g>
				<path class="st5" d="M327.7,31.64l1.87,7.99c0.14-0.27,0.35-0.5,0.62-0.65l-0.07-0.3c-0.04-0.16,0.04-0.31,0.18-0.34
					c0.13-0.03,0.27,0.07,0.31,0.23l0.06,0.26c0.28-0.04,0.55,0,0.8,0.11l-1.81-7.75c-0.11-0.48-0.56-0.54-1.1-0.41
					C328.01,30.9,327.59,31.16,327.7,31.64z"/>
				<path class="st3" d="M328.26,31.07l3.51,15.21l-0.64-0.26l-3.23-13.99C327.8,31.57,327.96,31.14,328.26,31.07L328.26,31.07z"/>
			</g>
		</g>
		<g>
			<path class="st4" d="M336.07,37.61l0.02,0.31c-0.29,0.1-0.54,0.29-0.72,0.53l0.14,2.2l0.35,5.81c0.03,0.49,0.47,0.42,1.02,0.39
				c0.55-0.03,0.98-0.36,0.95-0.85l-0.31-5.23l-0.17-2.69c-0.23-0.15-0.49-0.24-0.77-0.24l-0.02-0.26
				c-0.01-0.16-0.13-0.28-0.26-0.27C336.16,37.32,336.06,37.46,336.07,37.61z"/>
			<g>
				<path class="st5" d="M334.85,29.91l0.52,8.55c0.18-0.25,0.43-0.44,0.72-0.53l-0.02-0.31c-0.01-0.16,0.09-0.3,0.23-0.3
					c0.14-0.01,0.25,0.11,0.26,0.27l0.02,0.26c0.28,0.01,0.54,0.09,0.77,0.24l-0.48-7.75C336.3,30.13,335.38,29.95,334.85,29.91z"/>
				<path class="st3" d="M335.53,30.29l1.01,16.41c-0.31,0.02-0.6-0.02-0.66-1.64l-0.92-14.79
					C334.94,29.79,335.53,30.29,335.53,30.29z"/>
			</g>
		</g>
		<g>
			<path class="st4" d="M216.45,72.51l-0.04-0.22c-0.3-0.01-0.58-0.09-0.8-0.22l-0.29-1.6l-0.74-4.2c-0.06-0.35,0.29-0.83,0.84-0.92
				c0.54-0.1,1.02,0.04,1.09,0.39l0.75,4.2l0.35,1.95c-0.19,0.16-0.43,0.28-0.7,0.34l0.03,0.19c0.02,0.12-0.07,0.23-0.21,0.25
				C216.6,72.7,216.47,72.63,216.45,72.51z"/>
			<g>
				<path class="st5" d="M216.17,75.25l-0.56-3.18c0.22,0.14,0.5,0.21,0.8,0.22l0.04,0.22c0.02,0.12,0.15,0.19,0.28,0.17
					c0.13-0.02,0.23-0.14,0.21-0.25l-0.03-0.19c0.27-0.07,0.51-0.19,0.7-0.34l0.82,4.52C217.99,76.25,216.33,75.55,216.17,75.25z"/>
				<path class="st3" d="M216.92,75.66l-1.68-9.43l0,0c-0.31,0.05-0.51,0.38-0.44,0.72l1.48,8.28L216.92,75.66z"/>
			</g>
		</g>
		<g>
			<path class="st4" d="M206.41,69.24l0.09-0.13c-0.22-0.2-0.38-0.43-0.47-0.64l0.66-0.94l2.16-3.05c0.24,0.52,0.36,2.86,0.36,2.86
				l-0.81,1.24l-0.81,1.15c-0.23-0.06-0.47-0.16-0.7-0.31l-0.08,0.11c-0.05,0.07-0.18,0.06-0.29-0.02
				C206.42,69.42,206.36,69.3,206.41,69.24z"/>
			<g>
				<path class="st5" d="M202.55,73.36c0.11-0.15,3.49-4.9,3.49-4.9c0.09,0.21,0.25,0.44,0.47,0.64l-0.09,0.13
					c-0.05,0.07,0,0.19,0.11,0.27c0.11,0.08,0.24,0.09,0.29,0.02l0.08-0.11c0.23,0.15,0.47,0.26,0.7,0.31l-3.04,4.24
					c-0.15,0.21-0.73,0.39-1.29,0.23C202.74,74.03,202.44,73.51,202.55,73.36z"/>
				<path class="st3" d="M203.06,73.86l5.9-8.38l0,0c-0.25-0.18-0.58-0.16-0.72,0.04l-5.47,7.76
					C202.62,73.48,203.06,73.86,203.06,73.86z"/>
			</g>
		</g>
		<g>
			<path class="st4" d="M197.28,60.82l0.11-0.16c-0.21-0.21-0.36-0.45-0.43-0.69l0.82-1.15l1.3-1.84c0,0,1.98-0.59,2.89-0.61
				l-2.46,3.47l-1,1.41c-0.24-0.04-0.49-0.13-0.72-0.28l-0.1,0.14c-0.06,0.08-0.2,0.09-0.31,0.01
				C197.26,61.03,197.22,60.9,197.28,60.82z"/>
			<g>
				<path class="st5" d="M194.01,64.13l2.95-4.17c0.07,0.24,0.22,0.48,0.43,0.69l-0.11,0.16c-0.06,0.08-0.02,0.22,0.09,0.29
					c0.11,0.08,0.25,0.07,0.31-0.01l0.1-0.14c0.24,0.15,0.48,0.24,0.72,0.28l-3.39,4.65c-0.18,0.26-0.59-0.33-0.79-0.67
					C194.04,64.76,193.83,64.39,194.01,64.13z"/>
				<path class="st3" d="M194.31,64.86l5.54-7.89c0,0-0.6-0.12-0.78,0.12l-4.9,6.99C193.99,64.33,194.05,64.68,194.31,64.86
					L194.31,64.86z"/>
			</g>
		</g>
		<g>
			<path class="st1" d="M203.86,67.8l0.38-0.48c-0.24-0.06-0.47-0.17-0.67-0.33c-0.23-0.18-0.41-0.42-0.53-0.67l-0.41,0.51
				c-0.06,0.08-0.18,0.1-0.26,0.03c-0.01-0.01-0.02-0.02-0.02-0.03l-3.84,4.83c-0.26,0.33-0.2,0.91,0.23,1.25
				c0.43,0.34,0.97,0.45,1.23,0.13l3.94-4.97c-0.01,0-0.01,0-0.02-0.01C203.81,68,203.8,67.88,203.86,67.8z"/>
			<g>
				<path class="st2" d="M207.31,60.57l-1.97,2.47L203,66l-0.05,0.06l-0.6,0.76c0.01,0.01,0.01,0.02,0.02,0.03
					c0.08,0.06,0.2,0.05,0.26-0.03l0.41-0.51c0.12,0.26,0.29,0.49,0.53,0.67c0.2,0.16,0.43,0.27,0.67,0.33l-0.38,0.48
					c-0.07,0.08-0.05,0.2,0.03,0.26c0.01,0,0.01,0,0.02,0.01l0.56-0.7l0.1-0.13l2.39-3.02l1.27-1.62
					C208.22,62.61,207.6,60.84,207.31,60.57z"/>
				<path class="st3" d="M207.26,61.68l-8.55,10.82l0,0c-0.24-0.19-0.24-0.61,0.01-0.93l7.87-9.95
					C206.84,61.31,207.26,61.68,207.26,61.68z"/>
			</g>
		</g>
		<g>
			<path class="st1" d="M200.9,64.81l0.42-0.56c-0.25-0.04-0.49-0.14-0.7-0.29c-0.24-0.18-0.41-0.41-0.53-0.68l-0.45,0.61
				c-0.07,0.1-0.2,0.13-0.28,0.06c-0.01-0.01-0.02-0.02-0.03-0.03l-3.79,5.13c-0.29,0.39-0.16,0.97,0.29,1.29
				c0.44,0.33,0.81,0.61,1.09,0.23l4.02-5.46c-0.01,0-0.01,0-0.02-0.01C200.84,65.04,200.83,64.91,200.9,64.81z"/>
			<g>
				<path class="st2" d="M204.51,56.92l-1.87,2.51l-2.59,3.5L200,63.02l-0.66,0.9c0.01,0.01,0.01,0.02,0.03,0.03
					c0.08,0.06,0.21,0.03,0.28-0.06l0.45-0.61c0.12,0.27,0.29,0.51,0.53,0.68c0.21,0.15,0.45,0.25,0.7,0.29l-0.42,0.56
					c-0.07,0.1-0.06,0.22,0.02,0.29c0.01,0,0.01,0,0.02,0.01l0.61-0.83l0.11-0.15l2.64-3.57l1.68-2.27
					C205.73,57.7,204.93,57.05,204.51,56.92z"/>
				<path class="st3" d="M205.03,57.33l-9.36,12.68l0,0c-0.25-0.19-0.23-0.64,0.05-1.02l8.69-11.77
					C204.69,56.85,205.03,57.33,205.03,57.33z"/>
			</g>
		</g>
		<g>
			<path class="st4" d="M301.12,52.73l-0.03,0.58c-0.22-0.11-0.47-0.17-0.73-0.19c-0.3-0.01-0.58,0.04-0.84,0.15l0.03-0.63
				c0-0.1-0.08-0.18-0.18-0.19c-0.01,0-0.02,0-0.04,0.01l0.28-5.72c0.02-0.4,0.48-0.7,1.03-0.67c0.55,0.03,0.98,0.37,0.96,0.77
				l-0.28,5.71c-0.01,0-0.01,0-0.02,0C301.21,52.55,301.12,52.63,301.12,52.73z"/>
			<g>
				<path class="st5" d="M299.04,58.52l0.07-1.44l0.18-3.61l0-0.08l0.05-0.93c0.01,0,0.02-0.01,0.04-0.01
					c0.1,0.01,0.18,0.09,0.18,0.19l-0.03,0.63c0.26-0.11,0.54-0.17,0.84-0.15c0.26,0.01,0.5,0.08,0.73,0.19l0.03-0.58
					c0-0.1,0.09-0.18,0.2-0.17c0.01,0,0.01,0,0.02,0l-0.04,0.86l-0.01,0.16l-0.18,3.68l-0.1,2.57
					C300.98,60.22,299.04,58.52,299.04,58.52z"/>
				<path class="st3" d="M299.7,58.81l0.6-12.19l0,0c-0.31-0.02-0.58,0.29-0.6,0.68l-0.55,11.1L299.7,58.81z"/>
			</g>
		</g>
		<g>
			<path class="st4" d="M325.53,39.69l0.22,0.4c-0.24,0.04-0.47,0.13-0.7,0.25c-0.26,0.14-0.48,0.33-0.65,0.54l-0.24-0.43
				c-0.04-0.07-0.14-0.08-0.23-0.03c-0.01,0.01-0.02,0.02-0.03,0.02l-2.02-3.65c-0.15-0.27,0.11-0.71,0.6-0.98
				c0.48-0.27,1-0.26,1.15,0.01l2.02,3.65c-0.01,0-0.01,0-0.02,0.01C325.54,39.52,325.5,39.62,325.53,39.69z"/>
			<g>
				<path class="st5" d="M326.19,44.52l-0.52-0.9l-1.38-2.49l-0.03-0.05l-0.35-0.64c0.01-0.01,0.02-0.02,0.03-0.02
					c0.09-0.05,0.2-0.04,0.23,0.03l0.24,0.43c0.17-0.21,0.39-0.39,0.65-0.54c0.23-0.13,0.46-0.21,0.7-0.25l-0.22-0.4
					c-0.04-0.07,0-0.16,0.1-0.21c0.01,0,0.01,0,0.02-0.01l0.33,0.59l0.06,0.11l1.41,2.54l1.57,2.75
					C328.39,45.25,326.34,44.79,326.19,44.52z"/>
				<path class="st3" d="M327.1,44.82l-4.84-8.73l0,0c-0.27,0.15-0.37,0.49-0.22,0.76l4.24,7.65L327.1,44.82z"/>
			</g>
		</g>
		<g>
			<path class="st4" d="M343.27,37.36l-0.01,0.46c-0.23-0.08-0.47-0.12-0.73-0.13c-0.3,0-0.58,0.05-0.83,0.14l0.01-0.49
				c0-0.08-0.08-0.14-0.19-0.14c-0.01,0-0.02,0-0.04,0l0.04-4.17c0-0.31,1.99,1.86,1.99,1.86l-0.03,2.33c-0.01,0-0.01,0-0.02,0
				C343.36,37.22,343.28,37.28,343.27,37.36z"/>
			<g>
				<path class="st5" d="M341.4,43.73l0.04-2.88l0.03-2.85v-0.06l0.01-0.73c0.01,0,0.02-0.01,0.04,0c0.1,0,0.19,0.07,0.19,0.14
					l-0.01,0.49c0.25-0.09,0.54-0.15,0.83-0.14c0.26,0,0.51,0.05,0.73,0.13l0.01-0.46c0-0.08,0.08-0.14,0.19-0.14
					c0.01,0,0.01,0,0.02,0l-0.01,0.68l0,0.12l-0.03,2.9l-0.04,2.83c0,0.31-0.45,0.5-1,0.5C341.85,44.24,341.4,44.04,341.4,43.73z"/>
				<path class="st3" d="M341.67,33.9l-0.1,9.56c0,0.31,0.25,0.56,0.56,0.56l0.1-9.87C342.23,34.15,341.68,33.59,341.67,33.9z"/>
			</g>
		</g>
		<g>
			<path class="st1" d="M227.04,65.77l0.44,0.57c-0.25,0.04-0.49,0.14-0.7,0.3c-0.24,0.18-0.41,0.42-0.52,0.7l-0.47-0.62
				c-0.08-0.1-0.2-0.13-0.28-0.06c-0.01,0.01-0.02,0.02-0.02,0.03l-4.31-5.62c-0.3-0.39-0.19-0.98,0.25-1.32
				c0.44-0.33,1.04-0.29,1.34,0.11l4.3,5.62c-0.01,0-0.01,0-0.02,0.01C226.98,65.54,226.97,65.67,227.04,65.77z"/>
			<g>
				<path class="st2" d="M230.93,73.81l-1.97-2.58l-2.71-3.56l-0.06-0.08l-0.7-0.91c0.01-0.01,0.01-0.02,0.02-0.03
					c0.08-0.06,0.21-0.03,0.28,0.06l0.47,0.62c0.11-0.28,0.28-0.52,0.52-0.7c0.21-0.16,0.44-0.25,0.7-0.3l-0.44-0.57
					c-0.08-0.1-0.07-0.23,0.01-0.29c0.01,0,0.01,0,0.02-0.01l0.65,0.85l0.12,0.15l2.76,3.63l1.53,2.01
					C232.13,72.1,231.39,73.36,230.93,73.81z"/>
				<path class="st3" d="M231.2,73.06l-9.51-12.47l0,0c-0.25,0.19-0.21,0.65,0.08,1.04l9.09,11.95L231.2,73.06z"/>
			</g>
		</g>
		<g>
			<path class="st4" d="M286.85,50.36l-0.06,0.19c-0.3-0.04-0.58-0.01-0.81,0.07l-0.41,1.32l-1.38,4.51
				c-0.09,0.29,0.28,0.6,0.8,0.77c0.53,0.17,1.01,0.12,1.1-0.17l1.33-4.37l0.51-1.61c-0.18-0.16-0.4-0.3-0.66-0.4l0.05-0.16
				c0.03-0.1-0.05-0.21-0.18-0.25C287.01,50.22,286.88,50.26,286.85,50.36z"/>
			<g>
				<path class="st5" d="M287.47,45.94l-1.49,4.67c0.23-0.08,0.51-0.11,0.81-0.07l0.06-0.19c0.03-0.1,0.16-0.14,0.29-0.1
					c0.13,0.04,0.21,0.15,0.18,0.25l-0.05,0.16c0.26,0.1,0.49,0.24,0.66,0.4l0.87-2.76C288.8,48.3,288.44,46.99,287.47,45.94z"/>
				<path class="st3" d="M287.64,47.43l-2.77,8.84l0,0c-0.3-0.09-0.47-0.4-0.38-0.68l2.72-8.69L287.64,47.43z"/>
			</g>
		</g>
		<g>
			<path class="st4" d="M222.01,69.99l-0.14-0.28c-0.3,0.06-0.61,0.02-0.9-0.1l-1.02-2l-2.32-4.55c-0.23-0.44,0.03-0.92,0.52-1.17
				s0.82-0.6,1.04-0.16l2.42,4.75l1.25,2.45c-0.12,0.25-0.3,0.46-0.54,0.6l0.12,0.24c0.07,0.14,0.04,0.31-0.09,0.37
				C222.25,70.2,222.09,70.13,222.01,69.99z"/>
			<g>
				<path class="st5" d="M224.77,77.03l-3.8-7.42c0.28,0.12,0.6,0.16,0.9,0.1l0.14,0.28c0.07,0.15,0.23,0.21,0.35,0.15
					c0.12-0.06,0.16-0.23,0.09-0.37l-0.12-0.24c0.24-0.15,0.42-0.36,0.54-0.6l3.91,7.66C226.32,76.78,225.5,77.05,224.77,77.03z"/>
				<path class="st3" d="M225.38,76.81l-7.47-14.67l0,0c-0.28,0.14-0.33,0.6-0.11,1.04l6.84,13.43
					C224.87,77.03,225.38,76.81,225.38,76.81z"/>
			</g>
		</g>
	</g>
</g>
<g>
	<path class="st6" d="M386.59,28.43c-2.23-1.21-4.89-1.51-7.88-0.52c-6.26,2.07-8.38,8.23-6.52,13.84c1.86,5.61,7.24,9.28,13.5,7.21
		c2.51-0.83,4.69-2.32,6.17-3.95l-2.7-8.15l-5.81,1.93l-0.75-2.27l8.29-2.75l3.95,11.94c-2.18,2.52-5.44,4.55-8.4,5.53
		c-7.26,2.4-14.48-1.2-16.93-8.59c-2.45-7.4,1.2-14.6,8.46-17c3.85-1.28,7-1.1,9.89,0.35L386.59,28.43z"/>
	<path class="st6" d="M409.94,33.54l-0.09-0.43c-0.6-2.87-2.28-4-5.15-3.4c-1.95,0.41-3.51,1.44-4.67,3.01l-1.77-1.37
		c1.2-1.88,3.4-3.23,6.52-3.88c3.26-0.68,6.45,0.58,7.3,4.62l1.55,7.41c0.27,1.28,0.73,2.81,1.06,3.67l-2.27,0.47
		c-0.31-0.79-0.59-1.76-0.78-2.65l-0.07,0.01c-0.89,2.48-2.54,3.79-5.2,4.34c-2.94,0.61-6.05-0.44-6.73-3.67
		c-1.13-5.39,5.15-7.07,9.12-7.9L409.94,33.54z M409.14,35.71c-2.38,0.5-7.7,1.79-7,5.13c0.46,2.2,2.66,2.63,4.54,2.24
		c3.41-0.71,4.53-3.46,3.92-6.41l-0.25-1.21L409.14,35.71z"/>
	<path class="st6" d="M419.37,14.89l2.39-0.02l0.13,13.26l0.07,0c1.54-2.3,4.32-3.3,6.56-3.32c5.29-0.05,9.06,3.72,9.11,8.83
		c0.05,5.11-3.64,8.95-8.94,9c-2.25,0.02-5.05-0.93-6.63-3.2H422l0.03,2.83l-2.39,0.02L419.37,14.89z M428.55,26.97
		c-3.91,0.04-6.75,3-6.71,6.81c0.04,3.8,2.93,6.71,6.84,6.67c3.95-0.04,6.39-3,6.35-6.8C434.99,29.85,432.5,26.93,428.55,26.97z"/>
	<path class="st6" d="M444.03,31.81c0.33-1.49,0.54-2.78,1-5.2l2.3,0.51l-0.68,3.08l0.07,0.02c1.06-1.62,3.18-2.97,6.08-2.34
		c0.67,0.15,1.22,0.34,1.69,0.59l-0.97,2.2c-0.26-0.17-0.67-0.33-1.31-0.47c-3.54-0.78-5.81,1.95-6.3,4.18l-2.06,9.34l-2.34-0.51
		L444.03,31.81z"/>
	<path class="st6" d="M456.2,47.01l-2.29-0.69l4.85-16.25l2.29,0.68L456.2,47.01z M461.28,25.83c-0.83-0.25-1.46-1.19-1.17-2.16
		c0.29-0.97,1.33-1.42,2.16-1.17c0.83,0.25,1.46,1.19,1.17,2.16C463.15,25.64,462.11,26.08,461.28,25.83z"/>
	<path class="st6" d="M466.44,42.14c-0.87,3.31,0.66,6.69,3.83,7.82c2.39,0.85,4.71,0.17,6.1-0.94l1.23,2.05
		c-2.73,1.72-5.43,1.87-8.06,0.94c-4.74-1.69-6.99-6.52-5.27-11.33c1.71-4.81,6.5-7.15,11.04-5.53c4.84,1.76,6.36,6.34,4.81,10.71
		l-0.36,1.02L466.44,42.14z M477.95,44.16c1.08-3.04-0.12-5.81-3.37-6.96c-2.94-1.04-6.48,0.5-7.42,3.13L477.95,44.16z"/>
	<path class="st6" d="M486.2,56.84l-2.31-0.61l6.96-26.5l2.31,0.61L486.2,56.84z"/>
	<path class="st6" d="M496.79,59.07l-2.35-0.42l4.86-26.96l2.35,0.42L496.79,59.07z"/>
	<path class="st6" d="M516.58,50.83l0.03-0.43c0.21-2.93-1.09-4.47-4.02-4.69c-1.99-0.14-3.77,0.42-5.31,1.61l-1.32-1.8
		c1.67-1.48,4.15-2.17,7.33-1.94c3.32,0.24,6.04,2.33,5.74,6.45l-0.55,7.55c-0.09,1.3-0.06,2.9,0.01,3.81l-2.31-0.17
		c-0.08-0.84-0.08-1.86-0.02-2.76l-0.07,0c-1.54,2.14-3.48,2.94-6.19,2.75c-3-0.22-5.7-2.09-5.46-5.37
		c0.4-5.49,6.89-5.38,10.94-5.09L516.58,50.83z M515.21,52.69c-2.42-0.18-7.89-0.39-8.14,3c-0.16,2.24,1.83,3.26,3.75,3.4
		c3.47,0.25,5.31-2.08,5.53-5.08l0.09-1.23L515.21,52.69z"/>
	<path class="st6" d="M550.86,55.99l7.41-21.35l3.98-0.24l1.52,25.61l-2.6,0.15l-1.31-22.13l-0.07,0l-7.95,22.69l-1.37,0.08
		l-10.57-21.58l-0.07,0l1.32,22.13l-2.6,0.16L537,35.91l3.98-0.24L550.86,55.99z"/>
	<path class="st6" d="M570.89,37.32c-0.86,0.09-1.81-0.54-1.91-1.55c-0.11-1.01,0.68-1.82,1.55-1.91c0.87-0.09,1.81,0.54,1.91,1.55
		C572.54,36.41,571.75,37.23,570.89,37.32z M574.36,58.81l-2.38,0.25L570.2,42.2l2.38-0.25L574.36,58.81z"/>
	<path class="st6" d="M584.2,57.65l-2.37,0.3l-3.44-27.18l2.37-0.3L584.2,57.65z"/>
	<path class="st6" d="M594.05,56.26l-2.36,0.36l-4.07-27.09l2.37-0.35L594.05,56.26z"/>
	<path class="st6" d="M601.36,47.03c0.83,3.32,3.79,5.55,7.12,5.02c2.5-0.4,4.21-2.11,4.9-3.76l2.07,1.21
		c-1.57,2.82-3.87,4.26-6.62,4.7c-4.97,0.8-9.26-2.37-10.07-7.41c-0.81-5.04,2.27-9.39,7.03-10.16c5.09-0.78,8.62,2.5,9.36,7.08
		l0.17,1.07L601.36,47.03z M612.43,43.27c-0.51-3.18-2.9-5.04-6.3-4.49c-3.08,0.5-5.45,3.56-5,6.31L612.43,43.27z"/>
	<path class="st6" d="M620.66,40.52c-0.12-1.52-0.29-2.81-0.56-5.26l2.35-0.18l0.24,3.14l0.07-0.01c0.54-1.86,2.18-3.77,5.14-4
		c0.68-0.05,1.27-0.03,1.79,0.08l-0.29,2.38c-0.3-0.09-0.74-0.12-1.39-0.07c-3.61,0.28-4.99,3.55-4.82,5.83l0.74,9.54l-2.38,0.19
		L620.66,40.52z"/>
</g>
<g>
	<path class="st7" d="M185.98,161.55c13.74-24.61,10.49-53.42-1.19-79.84c20.4,15.12,26.46,61.16,17.45,87.34
		C194.19,192.44,171.47,187.56,185.98,161.55z"/>
	<path class="st7" d="M43.85,202.76c-17.34-11.5-29.55-28.99-35.45-48.88C36.53,158.06,47.91,175.92,43.85,202.76z"/>
	<path class="st7" d="M63.25,54.01c-21.64,8.85-34.23,30.39-38.42,53.02C21.29,126.18,9.08,122.08,5,124.44
		C8.3,97.38,29.63,56.62,63.25,54.01z"/>
	<path class="st8" d="M130.32,201.47c-0.11,13.17-7.69,30.53,0.63,37.45c6.4,5.33,12.79-9.6,19.16-20.56
		c7.28-12.52,11-9.85,26.22-11.24c35.34-3.23,28.09-12.73,10.42-15.69c-6.59-1.1-16.22-2.54-20.67-12.22
		c-4.23-9.19,0.28-17.87,7.33-27.87c9.55-13.55,12.29-21.32-8.62-9.43c-21.53,12.24-22.7,15.39-45.3,3.54
		c-30.35-15.91-21.12,0.27-7.28,13.87C123.24,170.17,130.45,185.73,130.32,201.47z"/>
	<path class="st9" d="M45.11,94.93c9.98-4.37,25.64-2.34,27.93-15c8.69,6.29,4.2,27.33-15.36,36.68
		C42.06,124.09,29.81,101.63,45.11,94.93z"/>
	<path class="st9" d="M102.42,191.13c-13.46-29.43-19.3-49.75-6.07-80.79c15.85-37.18,6.52-31.34-11.81-7.57
		c-16.21,21.02-36.29,22.72-66.48,29.28c-18.08,3.93-17.89,11.28,6.6,12.32c28,1.18,33.61,20.37,32.8,44.47
		c-0.27,8.12-1.54,16.3-4.21,23.7c-9.04,25.05,2.23,22.86,11.26,10.21c4.49-6.3,8.5-13.4,10.51-21.54
		c4.09-16.55,8.6-12.22,15.9-1.22C116.13,238.02,112.2,212.53,102.42,191.13z"/>
	<path class="st8" d="M131.11,143.2c-5.27-5.79-4.32-18.32,1.56-23.68c7.5-6.83,14.14-6.06,18.25-1.93
		C165.23,131.93,142.63,155.86,131.11,143.2z"/>
</g>
<g>
	<path class="st6" d="M655,193.08c0,8.42-7.49,15.3-16.64,15.3h-404.6c-9.15,0-16.64-6.89-16.64-15.3c0-8.42,7.49-15.3,16.64-15.3
		h404.6C647.51,177.78,655,184.67,655,193.08z"/>
</g>
<g>
	<path class="st10" d="M232,186.24h5.27c3.03,0,5.78,0.96,5.78,4.09c0,3.55-2.95,4.19-6.27,4.19h-1.99v5.84H232V186.24z
		 M236.47,192.36c1.59,0,3.65-0.08,3.65-1.99c0-1.73-1.84-1.97-3.34-1.97h-1.99v3.97H236.47z"/>
	<path class="st10" d="M247.74,186.24h10.39v2.27h-7.6v3.47h7.2v2.27h-7.2v3.83h8v2.27h-10.79V186.24z"/>
	<path class="st10" d="M263.49,186.24h6.18c4.12,0,7.97,2.27,7.97,7.06c0,4.82-4.54,7.06-8.31,7.06h-5.85V186.24z M268.36,198.08
		c3.5,0,6.36-1.36,6.36-4.79c0-3.43-2.48-4.78-5.89-4.78h-2.55v9.57H268.36z"/>
	<path class="st10" d="M282.44,186.24h2.79v14.11h-2.79V186.24z"/>
	<path class="st10" d="M295.95,186.24h2.41l6.76,14.11h-3.19l-1.46-3.23h-6.8l-1.42,3.23h-3.12L295.95,186.24z M299.49,194.97
		l-2.41-5.74l-2.46,5.74H299.49z"/>
	<path class="st10" d="M310.26,188.51h-4.81v-2.27h12.4v2.27h-4.81v11.84h-2.79V188.51z"/>
	<path class="st10" d="M321.97,186.24h5.45c3.01,0,5.85,0.88,5.85,4.05c0,2.03-1.31,3.53-3.63,3.83l4.16,6.24h-3.37l-3.63-5.98
		h-2.04v5.98h-2.79V186.24z M326.93,192.22c1.57,0,3.41-0.12,3.41-1.95c0-1.68-1.73-1.87-3.17-1.87h-2.41v3.83H326.93z"/>
	<path class="st10" d="M338.07,186.24h2.79v14.11h-2.79V186.24z"/>
	<path class="st10" d="M357.27,189.55c-1.15-1.1-2.21-1.4-3.3-1.4c-3.23,0-5.38,2.23-5.38,5.04c0,3.01,2.15,5.24,5.38,5.24
		c1.26,0,2.48-0.52,3.52-1.71l2.3,1.48c-1.42,1.75-3.54,2.51-5.85,2.51c-4.83,0-8.28-2.95-8.28-7.36c0-4.53,3.46-7.48,8.28-7.48
		c2.13,0,3.94,0.62,5.49,2.23L357.27,189.55z"/>
	<path class="st10" d="M372.66,186.24h5.45c3.01,0,5.85,0.88,5.85,4.05c0,2.03-1.31,3.53-3.63,3.83l4.16,6.24h-3.37l-3.63-5.98
		h-2.04v5.98h-2.79V186.24z M377.62,192.22c1.57,0,3.41-0.12,3.41-1.95c0-1.68-1.73-1.87-3.17-1.87h-2.41v3.83H377.62z"/>
	<path class="st10" d="M388.83,186.24h10.39v2.27h-7.6v3.47h7.2v2.27h-7.2v3.83h8v2.27h-10.79V186.24z"/>
	<path class="st10" d="M412.25,189.27c-0.6-0.76-1.66-1.12-2.75-1.12c-1.28,0-2.57,0.52-2.57,1.81c0,2.83,7.44,1.22,7.44,6.24
		c0,3.03-2.66,4.51-5.74,4.51c-1.95,0-3.85-0.54-5.14-1.91l2.1-1.83c0.69,0.94,1.86,1.48,3.1,1.48c1.28,0,2.75-0.64,2.75-1.93
		c0-3.09-7.44-1.32-7.44-6.36c0-2.91,2.88-4.27,5.78-4.27c1.64,0,3.28,0.42,4.5,1.45L412.25,189.27z"/>
	<path class="st10" d="M419.49,186.24h10.39v2.27h-7.6v3.47h7.2v2.27h-7.2v3.83h8v2.27h-10.79V186.24z"/>
	<path class="st10" d="M440.31,186.24h2.41l6.76,14.11h-3.19l-1.46-3.23h-6.8l-1.42,3.23h-3.12L440.31,186.24z M443.85,194.97
		l-2.41-5.74l-2.46,5.74H443.85z"/>
	<path class="st10" d="M453.44,186.24h5.45c3.01,0,5.85,0.88,5.85,4.05c0,2.03-1.31,3.53-3.63,3.83l4.16,6.24h-3.37l-3.63-5.98
		h-2.04v5.98h-2.79V186.24z M458.4,192.22c1.57,0,3.41-0.12,3.41-1.95c0-1.68-1.73-1.87-3.17-1.87h-2.41v3.83H458.4z"/>
	<path class="st10" d="M480.37,189.55c-1.15-1.1-2.21-1.4-3.3-1.4c-3.23,0-5.38,2.23-5.38,5.04c0,3.01,2.15,5.24,5.38,5.24
		c1.26,0,2.48-0.52,3.52-1.71l2.3,1.48c-1.42,1.75-3.54,2.51-5.85,2.51c-4.83,0-8.28-2.95-8.28-7.36c0-4.53,3.46-7.48,8.28-7.48
		c2.13,0,3.94,0.62,5.49,2.23L480.37,189.55z"/>
	<path class="st10" d="M486.99,186.24h2.79v5.62h7.33v-5.62h2.79v14.11h-2.79v-6.22h-7.33v6.22h-2.79V186.24z"/>
	<path class="st10" d="M514.38,186.24h5.27c3.03,0,5.78,0.96,5.78,4.09c0,3.55-2.95,4.19-6.27,4.19h-1.99v5.84h-2.79V186.24z
		 M518.86,192.36c1.6,0,3.65-0.08,3.65-1.99c0-1.73-1.84-1.97-3.34-1.97h-1.99v3.97H518.86z"/>
	<path class="st10" d="M530.13,186.24h5.45c3.01,0,5.85,0.88,5.85,4.05c0,2.03-1.31,3.53-3.63,3.83l4.16,6.24h-3.37l-3.63-5.98
		h-2.04v5.98h-2.79V186.24z M535.09,192.22c1.57,0,3.41-0.12,3.41-1.95c0-1.68-1.73-1.87-3.17-1.87h-2.41v3.83H535.09z"/>
	<path class="st10" d="M553.73,185.88c4.9-0.08,8.35,2.87,8.35,7.4c0,4.41-3.46,7.36-8.35,7.44c-4.83,0-8.28-2.95-8.28-7.36
		C545.45,188.83,548.91,185.88,553.73,185.88z M553.76,198.44c3.26,0,5.4-2.23,5.4-5.24c0-2.81-2.15-5.04-5.4-5.04
		c-3.23,0-5.38,2.23-5.38,5.04C548.37,196.21,550.52,198.44,553.76,198.44z"/>
	<path class="st10" d="M580.89,199.32c-1.91,0.92-4.08,1.4-6.49,1.4c-4.83,0-8.28-2.95-8.28-7.36c0-4.53,3.46-7.48,8.28-7.48
		c2.39,0,4.54,0.46,6.18,1.77l-2.06,1.87c-1-0.88-2.52-1.38-4.1-1.38c-3.23,0-5.38,2.23-5.38,5.04c0,3.01,2.15,5.24,5.38,5.24
		c1.42,0,2.7-0.24,3.68-0.74v-3.33h-3.21v-2.27h6V199.32z"/>
	<path class="st10" d="M586.4,186.24h5.45c3.01,0,5.85,0.88,5.85,4.05c0,2.03-1.31,3.53-3.63,3.83l4.16,6.24h-3.37l-3.63-5.98h-2.04
		v5.98h-2.79V186.24z M591.36,192.22c1.57,0,3.41-0.12,3.41-1.95c0-1.68-1.73-1.87-3.17-1.87h-2.41v3.83H591.36z"/>
	<path class="st10" d="M607.63,186.24h2.41l6.76,14.11h-3.19l-1.46-3.23h-6.8l-1.42,3.23h-3.12L607.63,186.24z M611.18,194.97
		l-2.41-5.74l-2.46,5.74H611.18z"/>
	<path class="st10" d="M620.83,186.24h4.25l4.19,9.89l4.23-9.89h4.21v14.11h-2.66v-11.72h-0.04l-4.76,11.72h-1.95l-4.76-11.72h-0.04
		v11.72h-2.66V186.24z"/>
</g>
<g>
	<path class="st11" d="M241.01,92.15c0.24,3.46,0.37,7.07,0.41,10.84c0.04,3.77,0.02,8.19-0.06,13.26
		c-0.08,5.07-0.12,8.66-0.12,10.78c0,2.04,0.04,4.93,0.12,8.66c0.08,3.73,0.12,6.35,0.12,7.84c0.08,6.6-0.12,12.22-0.59,16.85
		c-0.08,0.78-0.45,1.45-1.12,2c-0.67,0.55-1.41,0.78-2.24,0.71c-0.83-0.08-1.51-0.45-2.06-1.12c-0.55-0.67-0.79-1.43-0.71-2.3
		c0.47-4.32,0.67-9.7,0.59-16.14c0-1.41-0.04-4.01-0.12-7.78c-0.08-3.77-0.12-6.68-0.12-8.72c0-2.2,0.04-5.78,0.12-10.72
		c0.08-4.95,0.1-9.27,0.06-12.96c-0.04-3.69-0.18-7.27-0.41-10.72c-0.08-0.86,0.16-1.61,0.71-2.24c0.55-0.63,1.26-0.98,2.12-1.06
		c0.86-0.08,1.61,0.16,2.24,0.71C240.57,90.58,240.93,91.29,241.01,92.15z M283.08,88.5c-3.06,3.54-5.7,6.17-7.9,7.9
		c-0.87,0.79-2.87,2.16-6.01,4.12l-8.25,5.54c-3.14,2.12-5.56,3.95-7.25,5.48c-1.69,1.53-2.57,2.53-2.65,3
		c0,0.24,0.2,0.59,0.59,1.06c0.55,0.79,1.49,1.65,2.83,2.59c0.78,0.63,2.08,1.53,3.89,2.71l3.42,2.47
		c3.54,3.14,8.56,8.17,15.08,15.08c6.21,6.6,11.12,11.47,14.73,14.61c0.63,0.55,0.98,1.26,1.06,2.12c0.08,0.87-0.16,1.61-0.71,2.24
		c-0.55,0.63-1.26,0.98-2.12,1.06c-0.87,0.08-1.61-0.16-2.24-0.71c-3.69-3.22-8.72-8.25-15.08-15.08
		c-6.44-6.83-11.35-11.71-14.73-14.61c-0.39-0.39-1.34-1.06-2.83-2l-4.24-2.95c-1.73-1.33-3.03-2.59-3.89-3.77
		c-1.49-1.81-2.12-3.65-1.89-5.54c0.24-1.96,1.77-4.24,4.6-6.84c1.89-1.73,4.56-3.73,8.01-6.01l8.37-5.54
		c3.22-2.12,5.07-3.38,5.54-3.77c1.89-1.57,4.2-3.97,6.95-7.19c0.55-0.63,1.26-0.98,2.12-1.06c0.86-0.08,1.61,0.16,2.24,0.71
		c0.63,0.55,0.98,1.26,1.06,2.12C283.86,87.13,283.63,87.87,283.08,88.5z"/>
	<path class="st11" d="M307.82,113.13c-0.08,1.1-0.55,7.21-1.41,18.32c-0.87,11.12-1.3,19.58-1.3,25.4c0,0.87-0.29,1.59-0.88,2.18
		c-0.59,0.59-1.32,0.88-2.18,0.88c-0.87,0-1.59-0.29-2.18-0.88c-0.59-0.59-0.88-1.32-0.88-2.18c0-4.32,0.16-8.96,0.47-13.91
		c0.31-4.95,0.73-10.39,1.24-16.32c0.51-5.93,0.84-10.59,1-13.96c0.08-0.78,0.43-1.47,1.06-2.06c0.63-0.59,1.36-0.84,2.18-0.77
		c0.83,0.08,1.53,0.43,2.12,1.06C307.65,111.52,307.9,112.26,307.82,113.13z M305.41,92.09c0.59,0.59,0.88,1.32,0.88,2.18
		c0,0.87-0.29,1.59-0.88,2.18s-1.32,0.88-2.18,0.88c-0.87,0-1.59-0.29-2.18-0.88s-0.88-1.31-0.88-2.18c0-0.86,0.29-1.59,0.88-2.18
		s1.31-0.88,2.18-0.88C304.09,91.21,304.82,91.5,305.41,92.09z"/>
	<path class="st11" d="M365.57,86.61c0.24,3.06,0.43,7.82,0.59,14.26c0.16,7.54,0.27,12.18,0.35,13.91
		c0.39,8.09,0.51,15.6,0.35,22.51c-0.08,5.58-0.39,9.98-0.94,13.2c-0.24,2.04-0.59,3.77-1.06,5.19c-0.63,1.89-1.45,3.22-2.48,4.01
		c-1.96,1.49-4.95,2.04-8.96,1.65c-3.06-0.31-6.52-1.1-10.37-2.36c-3.61-1.18-6.99-2.55-10.13-4.12c-3.14-1.57-5.38-3.06-6.72-4.48
		c-2.52-2.67-4.18-5.85-5.01-9.55c-0.83-3.69-0.94-7.27-0.35-10.72c0.59-3.46,1.67-6.68,3.24-9.66c0.78-1.49,1.45-2.67,2-3.54
		c0.55-0.86,1.31-1.94,2.3-3.24c0.98-1.3,2.12-2.37,3.42-3.24c1.3-0.86,2.73-1.53,4.3-2c4.48-1.33,12.02-1.65,22.63-0.94
		c0.55,0.08,1.02,0.24,1.41,0.47v-3.54v-3.42c-0.16-5.66-0.39-10.21-0.71-13.67c-0.08-0.86,0.16-1.63,0.71-2.3
		c0.55-0.67,1.24-1.04,2.06-1.12c0.83-0.08,1.57,0.16,2.24,0.71C365.11,85.16,365.49,85.83,365.57,86.61z M358.61,154.85
		c0.16-0.31,0.31-0.71,0.47-1.18c0.31-0.94,0.59-2.28,0.82-4.01c0.47-2.99,0.75-7.15,0.82-12.49c0.16-6.91,0.04-14.3-0.35-22.16
		c0-0.63-0.04-1.3-0.12-2c-0.55,0.47-1.22,0.67-2,0.59c-9.82-0.63-16.66-0.39-20.5,0.71c-1.65,0.47-3.08,1.43-4.3,2.89
		c-1.22,1.45-2.53,3.48-3.95,6.07c-2.04,3.54-3,7.54-2.89,12.02c0.12,4.48,1.47,8.09,4.07,10.84c0.78,0.87,2.53,1.98,5.24,3.36
		c2.71,1.38,5.72,2.57,9.01,3.59c3.46,1.18,6.48,1.89,9.07,2.12C356.3,155.44,357.83,155.32,358.61,154.85z"/>
	<path class="st11" d="M408.46,119.37c-4.79-2.2-8.72-3.54-11.78-4.01c-4.24-0.55-7.23,0.43-8.96,2.95
		c-0.47,0.63-0.71,1.12-0.71,1.47c0,0.35,0.16,0.88,0.47,1.59c0.39,0.71,0.86,1.41,1.41,2.12c0.55,0.71,1.04,1.3,1.47,1.77
		c0.43,0.47,1.16,1.06,2.18,1.77l2,1.53l2.59,1.65c1.33,0.94,2.2,1.53,2.59,1.77c2.12,1.41,3.87,2.71,5.24,3.89
		c1.37,1.18,2.77,2.85,4.18,5.01c1.41,2.16,2.32,4.5,2.71,7.01c0.39,2.83-0.87,5.23-3.77,7.19c-1.89,1.26-4.44,2.28-7.66,3.06
		c-2.67,0.71-5.44,1.18-8.31,1.41c-2.87,0.24-5.05,0.24-6.54,0c-1.26-0.31-3.54-1.18-6.84-2.59c-0.79-0.39-1.34-0.98-1.65-1.77
		c-0.31-0.78-0.29-1.55,0.06-2.3c0.35-0.75,0.92-1.28,1.71-1.59c0.78-0.31,1.53-0.31,2.24,0c2.91,1.26,4.79,1.96,5.66,2.12
		c1.02,0.24,2.73,0.26,5.13,0.06c2.4-0.2,4.73-0.61,7.01-1.24c2.51-0.63,4.44-1.37,5.78-2.24c0.78-0.55,1.14-0.94,1.06-1.18
		c-0.39-2.43-1.34-4.54-2.83-6.3c-1.49-1.77-3.69-3.59-6.6-5.48c-0.31-0.24-1.1-0.77-2.36-1.59c-1.26-0.82-2.18-1.41-2.77-1.77
		c-0.59-0.35-1.43-0.96-2.53-1.83c-1.1-0.86-1.96-1.63-2.59-2.3c-0.63-0.67-1.34-1.49-2.12-2.47c-0.79-0.98-1.41-1.94-1.89-2.89
		c-0.87-1.73-1.26-3.34-1.18-4.83c0.16-1.49,0.78-3.02,1.89-4.6c3.14-4.56,8.05-6.36,14.73-5.42c3.69,0.47,8.21,1.93,13.55,4.36
		c0.78,0.39,1.31,0.98,1.59,1.77c0.27,0.79,0.24,1.57-0.12,2.36c-0.35,0.79-0.92,1.32-1.71,1.59
		C410.03,119.71,409.25,119.69,408.46,119.37z"/>
	<path class="st11" d="M454.77,80.13c2.51-0.08,6.83-0.04,12.96,0.12c5.34,0.16,9.55,0.12,12.61-0.12c0.86-0.08,1.61,0.16,2.24,0.71
		c0.63,0.55,0.98,1.26,1.06,2.12c0.08,0.87-0.16,1.61-0.71,2.24c-0.55,0.63-1.26,0.98-2.12,1.06c-3.38,0.24-7.82,0.28-13.32,0.12
		c-5.97-0.16-10.13-0.2-12.49-0.12h-0.71v0.12c0,4.87-0.35,11.2-1.06,18.97l-0.59,5.89c2.75,1.18,5.28,2.14,7.6,2.89
		c2.32,0.75,4.79,1.36,7.42,1.83c2.63,0.47,5.19,0.61,7.66,0.41c2.47-0.2,4.81-0.73,7.01-1.59c0.78-0.31,1.57-0.31,2.36,0
		c0.78,0.32,1.34,0.87,1.65,1.65c0.31,0.79,0.31,1.57,0,2.36c-0.31,0.79-0.87,1.34-1.65,1.65c-8.64,3.46-19.48,2.55-32.53-2.71
		c-0.23,2.12-0.39,4.17-0.47,6.13c-0.16,3.46-0.08,7.97,0.24,13.55c0.47,6.91,0.71,11.63,0.71,14.14c0,0.87-0.29,1.59-0.88,2.18
		c-0.59,0.59-1.32,0.88-2.18,0.88c-0.87,0-1.59-0.29-2.18-0.88c-0.59-0.59-0.88-1.31-0.88-2.18c0-2.36-0.24-6.91-0.71-13.67
		c-0.32-5.97-0.39-10.72-0.24-14.26c0.16-2.83,0.67-9.11,1.53-18.86c0.71-7.93,1.06-14.06,1.06-18.38c0-0.86,0.29-1.59,0.88-2.18
		c0.59-0.59,1.31-0.88,2.18-0.88h0.59c0-0.86,0.27-1.61,0.82-2.24C453.2,80.45,453.91,80.13,454.77,80.13z"/>
	<path class="st11" d="M501.79,113.13c-0.08,1.1-0.55,7.21-1.41,18.32c-0.87,11.12-1.3,19.58-1.3,25.4c0,0.87-0.29,1.59-0.88,2.18
		c-0.59,0.59-1.32,0.88-2.18,0.88c-0.87,0-1.59-0.29-2.18-0.88c-0.59-0.59-0.88-1.32-0.88-2.18c0-4.32,0.16-8.96,0.47-13.91
		c0.31-4.95,0.73-10.39,1.24-16.32c0.51-5.93,0.84-10.59,1-13.96c0.08-0.78,0.43-1.47,1.06-2.06c0.63-0.59,1.35-0.84,2.18-0.77
		c0.82,0.08,1.53,0.43,2.12,1.06C501.61,111.52,501.87,112.26,501.79,113.13z M499.37,92.09c0.59,0.59,0.88,1.32,0.88,2.18
		c0,0.87-0.29,1.59-0.88,2.18c-0.59,0.59-1.32,0.88-2.18,0.88c-0.87,0-1.59-0.29-2.18-0.88c-0.59-0.59-0.88-1.31-0.88-2.18
		c0-0.86,0.29-1.59,0.88-2.18c0.59-0.59,1.32-0.88,2.18-0.88C498.06,91.21,498.79,91.5,499.37,92.09z"/>
	<path class="st11" d="M524.06,122.79c2.98-6.36,6.72-10.09,11.2-11.2c4.71-1.18,9.66,0.71,14.85,5.66
		c0.63,0.63,0.94,1.36,0.94,2.18c0,0.82-0.29,1.55-0.88,2.18c-0.59,0.63-1.3,0.94-2.12,0.94c-0.82,0-1.55-0.27-2.18-0.82
		c-3.61-3.46-6.68-4.87-9.19-4.24c-2.52,0.63-4.83,3.26-6.95,7.9c-0.39,0.79-0.98,1.32-1.77,1.59c-0.79,0.28-1.57,0.26-2.36-0.06
		c-0.94-0.47-1.53-1.22-1.77-2.24c-0.47,15.08,0.71,29.66,3.54,43.72c0.24,0.78,0.12,1.53-0.35,2.24c-0.47,0.71-1.12,1.16-1.94,1.36
		c-0.82,0.19-1.59,0.06-2.3-0.41c-0.71-0.47-1.14-1.14-1.3-2c-3.85-18.54-4.79-38.1-2.83-58.69c0.08-0.78,0.45-1.45,1.12-2
		c0.67-0.55,1.41-0.78,2.24-0.71c0.82,0.08,1.51,0.45,2.06,1.12c0.55,0.67,0.78,1.43,0.71,2.3c-0.39,4.64-0.67,8.53-0.82,11.67
		C524.02,123.11,524.06,122.95,524.06,122.79z"/>
	<path class="st11" d="M585.58,119.37c-4.79-2.2-8.72-3.54-11.78-4.01c-4.24-0.55-7.23,0.43-8.96,2.95
		c-0.47,0.63-0.71,1.12-0.71,1.47c0,0.35,0.16,0.88,0.47,1.59c0.39,0.71,0.86,1.41,1.41,2.12c0.55,0.71,1.04,1.3,1.47,1.77
		c0.43,0.47,1.16,1.06,2.18,1.77l2,1.53l2.59,1.65c1.33,0.94,2.2,1.53,2.59,1.77c2.12,1.41,3.87,2.71,5.24,3.89
		c1.37,1.18,2.77,2.85,4.18,5.01c1.41,2.16,2.32,4.5,2.71,7.01c0.39,2.83-0.87,5.23-3.77,7.19c-1.89,1.26-4.44,2.28-7.66,3.06
		c-2.67,0.71-5.44,1.18-8.31,1.41c-2.87,0.24-5.05,0.24-6.54,0c-1.26-0.31-3.54-1.18-6.84-2.59c-0.79-0.39-1.34-0.98-1.65-1.77
		c-0.31-0.78-0.29-1.55,0.06-2.3c0.35-0.75,0.92-1.28,1.71-1.59c0.78-0.31,1.53-0.31,2.24,0c2.91,1.26,4.79,1.96,5.66,2.12
		c1.02,0.24,2.73,0.26,5.13,0.06c2.4-0.2,4.73-0.61,7.01-1.24c2.51-0.63,4.44-1.37,5.78-2.24c0.78-0.55,1.14-0.94,1.06-1.18
		c-0.39-2.43-1.34-4.54-2.83-6.3c-1.49-1.77-3.69-3.59-6.6-5.48c-0.31-0.24-1.1-0.77-2.36-1.59c-1.26-0.82-2.18-1.41-2.77-1.77
		c-0.59-0.35-1.43-0.96-2.53-1.83c-1.1-0.86-1.96-1.63-2.59-2.3c-0.63-0.67-1.34-1.49-2.12-2.47c-0.79-0.98-1.41-1.94-1.89-2.89
		c-0.86-1.73-1.26-3.34-1.18-4.83c0.16-1.49,0.78-3.02,1.89-4.6c3.14-4.56,8.05-6.36,14.73-5.42c3.69,0.47,8.21,1.93,13.55,4.36
		c0.78,0.39,1.31,0.98,1.59,1.77c0.27,0.79,0.24,1.57-0.12,2.36c-0.35,0.79-0.92,1.32-1.71,1.59
		C587.15,119.71,586.36,119.69,585.58,119.37z"/>
	<path class="st11" d="M609.97,117.02c-1.02,0-1.89-0.04-2.59-0.12c-1.26,0-2.28-0.12-3.06-0.35c-0.55-0.08-1.02-0.24-1.41-0.47
		c-0.94-0.47-1.57-1.14-1.89-2c-0.47-1.49-0.16-2.75,0.94-3.77c0.39-0.47,0.94-0.84,1.65-1.12c0.71-0.27,1.1-0.41,1.18-0.41
		c3.69-2.75,6.79-4.52,9.31-5.3c0.78-0.24,1.55-0.16,2.3,0.24c0.75,0.39,1.26,0.98,1.53,1.77c0.28,0.79,0.22,1.55-0.18,2.3
		c-0.39,0.75-0.98,1.28-1.77,1.59c-1.18,0.39-2.32,0.87-3.42,1.41h2.12l7.78-0.59c2.98-0.24,4.63-0.35,4.95-0.35
		c0.86,0,1.61,0.28,2.24,0.82c0.63,0.55,0.94,1.26,0.94,2.12c0,0.87-0.28,1.61-0.82,2.24c-0.55,0.63-1.26,0.94-2.12,0.94
		c-0.39,0-1.94,0.12-4.66,0.35c-2.71,0.24-5.01,0.39-6.89,0.47c-0.63,10.92-0.47,19.72,0.47,26.4c0.78,5.5,2,9.04,3.65,10.61
		c0.47,0.47,1.06,0.67,1.77,0.59c1.26-0.16,2.79-1.02,4.6-2.59c0.63-0.55,1.37-0.78,2.24-0.71c0.86,0.08,1.57,0.43,2.12,1.06
		c0.55,0.63,0.78,1.38,0.71,2.24c-0.08,0.87-0.43,1.57-1.06,2.12c-2.75,2.36-5.34,3.69-7.78,4.01c-2.67,0.31-4.99-0.47-6.95-2.36
		c-2.59-2.51-4.36-7.23-5.3-14.14C609.54,136.86,609.34,127.86,609.97,117.02z"/>
</g>
<g>
	<path class="st12" d="M169.5,70.25c-24.9,14.29-62.51,7.96-83.9-9.46c-10.26-8.36-8.35-8.56,2.65-11.3
		c9.49-2.36,15.1-4.19,26.27,4.23c6.64,5.01,13.41,8.7,19.63,10.22c14.79,3.61,25.96,3.3,36.12-0.43
		C189.74,56.35,190.32,58.3,169.5,70.25z"/>
	<path class="st13" d="M136.86,32.76c5.49,11.57,17.91,21.7,31.17,22.22c9.67,0.38,15.75-2.19,0.38,3.46
		c-9.14,3.36-19.33,3.6-32.99,0.27c-5.13-1.25-10.76-4.23-16.39-8.32c-13.63-9.9-0.94-13.37,8.91-21.61
		C137.39,20.88,131.78,22.03,136.86,32.76z"/>
	<path class="st14" d="M92,7.95c10.77,4.5,20.05,6.28,30.31,6.99c9.54,0.66,11.43-0.38,4.07,8.54c-3.41,4.13-7.59,7.62-12.26,10.54
		c-11.24,7.03-21.18-7.1-26.91-19.42C81.8,2.96,81.25,3.46,92,7.95z"/>
	<path class="st15" d="M79.96,35.47c0.73-4.37,1.29-9.24,1.46-14.25c0.29-8.01-0.96-8.12,3.38-1.06c2.35,3.82,5.2,7.97,7.73,11.38
		c4.25,5.73,7.45,9.51,0.52,11.44c-2.32,0.65-4.65,1.21-6.99,1.71C74.74,47.08,78.3,45.42,79.96,35.47z"/>
</g>
<g class="st16">
	<path class="st17" d="M258.26,244.8c-1.5,0-2.41-1.01-2.41-2.38v-19.74c0-1.4,0.91-2.38,2.41-2.38h5.83c3.42,0,6.04,0.94,7.89,2.83
		c1.85,1.89,2.9,4.4,3.07,7.51c0.07,1.33,0.07,2.59,0,3.81c-0.17,3.11-1.22,5.62-3.07,7.51c-1.85,1.89-4.47,2.83-7.89,2.83H258.26z
		 M272.19,230.76c-0.24-4.79-2.9-7.69-8.1-7.69h-5.38v18.97h5.38c5.17,0,7.82-2.86,8.1-7.65
		C272.26,233.1,272.26,231.91,272.19,230.76z"/>
	<path class="st17" d="M294.24,242.01c0,0.52-0.21,0.91-0.59,1.15c-0.59,0.45-1.57,0.87-2.9,1.33c-1.29,0.42-2.72,0.63-4.23,0.63
		c-4.47,0-6.99-2.34-6.99-5.94c0-3.25,2.51-5.66,7.02-5.66c1.43,0,3.07,0.24,4.89,0.73v-1.43c0-2.79-1.4-4.02-4.37-4.02
		c-1.15,0-2.55,0.31-4.16,0.91c-1.12,0.42-2.03-0.14-2.03-1.08c0-0.59,0.31-1.05,0.91-1.33c1.54-0.73,3.39-1.12,5.55-1.12
		c4.33,0,6.88,2.1,6.88,6.53V242.01z M291.44,241.27v-4.58c-1.99-0.52-3.63-0.77-4.86-0.77c-2.48,0-4.23,1.22-4.23,3.18
		c0,2.31,1.5,3.46,4.47,3.46C289.31,242.56,290.88,241.83,291.44,241.27z"/>
	<path class="st17" d="M305.45,245.11c-3.6,0-5.38-2.31-5.38-5.76v-15.19c0-0.8,0.59-1.43,1.4-1.43c0.8,0,1.43,0.63,1.43,1.43v2.86
		h5.27c0.7,0,1.33,0.59,1.33,1.29c0,0.7-0.63,1.29-1.33,1.29h-5.27v9.85c0,1.85,0.87,3.04,2.69,3.04c0.42,0,1.36-0.21,2.79-0.63
		c1.12-0.28,1.82,0.35,1.82,1.29c0,0.66-0.38,1.12-1.15,1.36C308.03,244.91,306.81,245.11,305.45,245.11z"/>
	<path class="st17" d="M328.12,242.01c0,0.52-0.21,0.91-0.59,1.15c-0.59,0.45-1.57,0.87-2.9,1.33c-1.29,0.42-2.72,0.63-4.23,0.63
		c-4.47,0-6.99-2.34-6.99-5.94c0-3.25,2.51-5.66,7.02-5.66c1.43,0,3.07,0.24,4.89,0.73v-1.43c0-2.79-1.4-4.02-4.37-4.02
		c-1.15,0-2.55,0.31-4.16,0.91c-1.12,0.42-2.03-0.14-2.03-1.08c0-0.59,0.31-1.05,0.91-1.33c1.54-0.73,3.39-1.12,5.55-1.12
		c4.33,0,6.88,2.1,6.88,6.53V242.01z M325.33,241.27v-4.58c-1.99-0.52-3.63-0.77-4.86-0.77c-2.48,0-4.23,1.22-4.23,3.18
		c0,2.31,1.5,3.46,4.47,3.46C323.19,242.56,324.77,241.83,325.33,241.27z"/>
	<path class="st17" d="M360.64,244.94c-0.42,0-0.77-0.18-1.05-0.49l-6.57-8.1c-0.66-0.8-1.08-1.12-1.96-1.12h-4.23v8.24
		c0,0.8-0.7,1.47-1.43,1.47c-0.73,0-1.43-0.66-1.43-1.47v-20.82c0-1.36,0.87-2.34,2.38-2.34h7.13c2.24,0,4.12,0.66,5.62,1.99
		c1.5,1.33,2.27,3.18,2.27,5.52c0,4.02-2.27,6.29-5.94,6.88l6.36,7.86c0.21,0.24,0.31,0.52,0.31,0.87
		C362.11,244.24,361.44,244.94,360.64,244.94z M346.84,232.5h6.29c3.56,0,5.34-1.57,5.34-4.68c0-2.97-1.71-4.75-5.17-4.75h-6.46
		V232.5z"/>
	<path class="st17" d="M382.12,234.81c0,1.36-0.7,2.03-2.06,2.03h-10.44v0.56c0,3.21,2.1,5.13,5.2,5.13c1.15,0,2.55-0.31,4.26-0.91
		c1.15-0.45,2.03,0.24,2.03,1.12c0,0.52-0.24,0.94-0.77,1.26c-1.12,0.66-3.49,1.12-5.55,1.12c-4.75,0-7.69-2.93-7.93-7.51
		c-0.1-1.64-0.07-3.04,0.04-4.19c0.38-4.47,3.42-7.23,7.72-7.23c2.27,0,4.09,0.7,5.45,2.13c1.36,1.4,2.06,3.21,2.06,5.45V234.81z
		 M378.91,234.46c0.28,0,0.42-0.14,0.45-0.42c0.17-3.18-1.68-5.31-4.72-5.31c-3.35,0-5.14,2.2-5.03,5.73H378.91z"/>
	<path class="st17" d="M394.8,234.6c3.11,0.8,4.65,2.45,4.65,4.93c0,3.39-2.69,5.59-6.78,5.59c-2.55,0-4.65-0.66-6.22-1.96
		c-0.56-0.45-0.66-1.33-0.28-1.89c0.52-0.7,1.19-0.8,1.96-0.28c1.43,1.08,2.51,1.57,4.79,1.57c2.34,0,3.74-1.22,3.74-2.9
		c0-1.22-0.94-2.06-2.79-2.51c-1.64-0.38-2.48-0.56-2.51-0.59c-3.28-0.84-4.93-2.48-4.93-4.96c0-3.32,2.65-5.41,6.53-5.41
		c2.03,0,3.7,0.49,5,1.5c0.66,0.52,0.63,1.54,0.17,1.96c-0.49,0.56-1.12,0.63-1.89,0.18c-1.19-0.7-2.31-1.05-3.39-1.05
		c-2.45,0-3.67,0.91-3.67,2.72c0,1.15,0.73,1.85,2.73,2.41l1.78,0.42L394.8,234.6z"/>
	<path class="st17" d="M419.26,238.06c-0.1,2.06-0.91,3.74-2.37,5.07c-1.43,1.33-3.25,1.99-5.41,1.99c-2.13,0-3.95-0.66-5.42-1.99
		c-1.47-1.33-2.27-3-2.37-5.07c-0.1-1.64-0.1-3.28,0-4.96c0.1-2.03,0.91-3.67,2.34-4.96c1.47-1.29,3.28-1.96,5.45-1.96
		c2.16,0,3.98,0.63,5.41,1.92c1.47,1.29,2.27,2.93,2.37,5C419.36,234.77,419.36,236.42,419.26,238.06z M406.51,237.88
		c0.24,2.76,2.17,4.58,4.96,4.58c2.79,0,4.71-1.82,4.96-4.58c0.1-1.5,0.1-3.04,0-4.58c-0.17-2.65-2.06-4.47-4.96-4.47
		c-2.9,0-4.79,1.82-4.96,4.47C406.4,234.85,406.4,236.38,406.51,237.88z"/>
	<path class="st17" d="M424.6,227.89c0-0.8,0.59-1.47,1.4-1.47c0.8,0,1.43,0.66,1.43,1.47v10.13c0,2.76,1.75,4.4,4.68,4.4
		c1.92,0,3.53-0.42,4.82-1.29v-13.24c0-0.8,0.59-1.47,1.4-1.47c0.8,0,1.43,0.66,1.43,1.47v13.97c0,0.52-0.21,0.91-0.59,1.15
		c-1.99,1.4-4.37,2.1-7.06,2.1c-4.58,0-7.51-2.62-7.51-7.13V227.89z"/>
	<path class="st17" d="M455.76,227.89c0,0.66-0.53,1.29-1.4,1.29c-0.18,0-0.59-0.04-1.19-0.14c-0.59-0.1-1.12-0.14-1.57-0.14
		c-1.89,0.04-2.83,1.08-2.83,3.14v11.46c0,0.8-0.63,1.43-1.43,1.43c-0.8,0-1.43-0.63-1.43-1.43v-11.77c0-3.46,2.06-5.55,5.69-5.55
		c1.22,0,2.24,0.14,3.04,0.38C455.38,226.74,455.76,227.19,455.76,227.89z"/>
	<path class="st17" d="M470.96,239.49c0.28-0.63,0.73-0.94,1.36-0.94c0.73,0,1.33,0.59,1.33,1.43c0,1.05-0.66,2.17-1.99,3.35
		c-1.29,1.19-3.04,1.78-5.2,1.78c-2.2,0-4.05-0.66-5.48-1.99c-1.43-1.36-2.24-3.04-2.34-5.07c-0.1-1.64-0.1-3.32,0-4.96
		c0.1-2.06,0.91-3.7,2.34-5c1.47-1.29,3.28-1.92,5.48-1.92c2.17,0,3.88,0.59,5.17,1.82c1.29,1.19,1.96,2.31,1.96,3.32
		c0,0.84-0.59,1.43-1.33,1.43c-0.63,0-1.08-0.31-1.36-0.94c-0.8-1.96-2.48-2.97-4.4-2.97c-2.93,0-4.79,1.75-5.03,4.44
		c-0.1,1.33-0.1,2.86,0,4.61c0.24,2.69,2.06,4.58,5.03,4.58C468.41,242.46,470.15,241.45,470.96,239.49z"/>
	<path class="st17" d="M493.35,234.81c0,1.36-0.7,2.03-2.06,2.03h-10.44v0.56c0,3.21,2.1,5.13,5.2,5.13c1.15,0,2.55-0.31,4.26-0.91
		c1.15-0.45,2.03,0.24,2.03,1.12c0,0.52-0.24,0.94-0.77,1.26c-1.12,0.66-3.49,1.12-5.55,1.12c-4.75,0-7.69-2.93-7.93-7.51
		c-0.1-1.64-0.07-3.04,0.03-4.19c0.39-4.47,3.42-7.23,7.72-7.23c2.27,0,4.09,0.7,5.45,2.13c1.36,1.4,2.06,3.21,2.06,5.45V234.81z
		 M490.13,234.46c0.28,0,0.42-0.14,0.45-0.42c0.18-3.18-1.68-5.31-4.71-5.31c-3.35,0-5.14,2.2-5.03,5.73H490.13z"/>
	<path class="st17" d="M523.84,238.23c0.24-0.59,0.7-0.91,1.33-0.91c0.66,0,1.36,0.63,1.36,1.36c0,0.18-0.04,0.38-0.1,0.63
		c-0.7,1.75-1.85,3.14-3.49,4.23c-1.64,1.08-3.42,1.61-5.41,1.61c-2.76,0-5.07-0.91-6.92-2.76c-1.85-1.85-2.87-4.19-3.04-6.99
		c-0.14-1.92-0.14-3.81,0-5.66c0.21-2.79,1.22-5.1,3.04-6.95c1.85-1.85,4.16-2.79,6.92-2.79c1.99,0,3.77,0.52,5.41,1.61
		c1.64,1.05,2.79,2.45,3.49,4.19c0.07,0.24,0.1,0.45,0.1,0.66c0,0.73-0.7,1.33-1.36,1.33c-0.63,0-1.08-0.31-1.33-0.91
		c-1.08-2.51-3.53-4.12-6.32-4.12c-1.99,0-3.6,0.66-4.89,1.99c-1.29,1.33-2.02,3.04-2.2,5.14c-0.1,1.78-0.1,3.6,0,5.38
		c0.18,2.1,0.91,3.81,2.2,5.13c1.29,1.33,2.9,1.99,4.89,1.99C520.31,242.39,522.76,240.75,523.84,238.23z"/>
	<path class="st17" d="M546.09,234.81c0,1.36-0.7,2.03-2.06,2.03h-10.44v0.56c0,3.21,2.1,5.13,5.2,5.13c1.15,0,2.55-0.31,4.26-0.91
		c1.15-0.45,2.03,0.24,2.03,1.12c0,0.52-0.24,0.94-0.77,1.26c-1.12,0.66-3.49,1.12-5.55,1.12c-4.75,0-7.69-2.93-7.93-7.51
		c-0.1-1.64-0.07-3.04,0.03-4.19c0.39-4.47,3.42-7.23,7.72-7.23c2.27,0,4.09,0.7,5.45,2.13c1.36,1.4,2.06,3.21,2.06,5.45V234.81z
		 M542.88,234.46c0.28,0,0.42-0.14,0.45-0.42c0.18-3.18-1.68-5.31-4.71-5.31c-3.35,0-5.14,2.2-5.03,5.73H542.88z"/>
	<path class="st17" d="M566.46,243.47c0,0.84-0.56,1.47-1.4,1.47c-0.8,0-1.43-0.63-1.43-1.47v-10.02c0-3.04-1.99-4.58-4.68-4.58
		c-1.92,0-3.53,0.38-4.82,1.15v13.45c0,0.84-0.59,1.47-1.4,1.47c-0.8,0-1.43-0.63-1.43-1.47v-14.15c0-0.52,0.21-0.94,0.63-1.26
		c1.26-0.94,3.88-1.89,7.09-1.89c4.86,0,7.44,2.51,7.44,7.13V243.47z"/>
	<path class="st17" d="M577.78,245.11c-3.6,0-5.38-2.31-5.38-5.76v-15.19c0-0.8,0.59-1.43,1.4-1.43c0.8,0,1.43,0.63,1.43,1.43v2.86
		h5.28c0.7,0,1.33,0.59,1.33,1.29c0,0.7-0.63,1.29-1.33,1.29h-5.28v9.85c0,1.85,0.87,3.04,2.69,3.04c0.42,0,1.36-0.21,2.79-0.63
		c1.12-0.28,1.82,0.35,1.82,1.29c0,0.66-0.39,1.12-1.15,1.36C580.36,244.91,579.14,245.11,577.78,245.11z"/>
	<path class="st17" d="M601.42,234.81c0,1.36-0.7,2.03-2.06,2.03h-10.44v0.56c0,3.21,2.1,5.13,5.2,5.13c1.15,0,2.55-0.31,4.26-0.91
		c1.15-0.45,2.03,0.24,2.03,1.12c0,0.52-0.24,0.94-0.77,1.26c-1.12,0.66-3.49,1.12-5.55,1.12c-4.75,0-7.69-2.93-7.93-7.51
		c-0.1-1.64-0.07-3.04,0.03-4.19c0.39-4.47,3.42-7.23,7.72-7.23c2.27,0,4.09,0.7,5.45,2.13c1.36,1.4,2.06,3.21,2.06,5.45V234.81z
		 M598.21,234.46c0.28,0,0.42-0.14,0.45-0.42c0.18-3.18-1.68-5.31-4.71-5.31c-3.35,0-5.14,2.2-5.03,5.73H598.21z"/>
	<path class="st17" d="M616.27,227.89c0,0.66-0.53,1.29-1.4,1.29c-0.18,0-0.59-0.04-1.19-0.14c-0.59-0.1-1.12-0.14-1.57-0.14
		c-1.89,0.04-2.83,1.08-2.83,3.14v11.46c0,0.8-0.63,1.43-1.43,1.43c-0.8,0-1.43-0.63-1.43-1.43v-11.77c0-3.46,2.06-5.55,5.69-5.55
		c1.22,0,2.24,0.14,3.04,0.38C615.89,226.74,616.27,227.19,616.27,227.89z"/>
</g>
<text transform="matrix(1 0 0 1 275.2503 244.8002)" class="st18 st19 st20">Data Tracker Notifier</text>
</svg>
